<?xml version="1.0" encoding="utf-8"?>
<!-- Generator: Adobe Illustrator 27.5.0, SVG Export Plug-In . SVG Version: 6.00 Build 0)  -->
<svg version="1.1" xmlns="http://www.w3.org/2000/svg" xmlns:xlink="http://www.w3.org/1999/xlink" x="0px" y="0px"
	 viewBox="0 0 750 500" style="enable-background:new 0 0 750 500;" xml:space="preserve">
<g id="Background_Complete">
	<g>
		<path style="fill:#F5F5F5;" d="M474.951,200.836v44.098c0,7.67,6.467,14.138,14.447,14.138h158.121
			c7.979,0,14.447-6.468,14.447-14.447v-37.261l19.685-20.683l-192.209-0.601C481.446,186.055,474.951,192.531,474.951,200.836z"/>
		<g>
			<polygon style="fill:#E0E0E0;" points="638.657,212.797 495.172,212.135 495.188,207.724 638.672,208.387 			"/>
		</g>
		<g>
			<polygon style="fill:#E0E0E0;" points="638.657,227.306 495.172,226.643 495.188,222.233 638.672,222.896 			"/>
		</g>
		<g>
			
				<rect x="608.075" y="210.717" transform="matrix(0.0049 -1 1 0.0049 368.1771 848.1992)" style="fill:#E0E0E0;" width="4.41" height="56.773"/>
		</g>
	</g>
	<g>
		<g>
			<g>
				<g>
					<path style="fill:#F5F5F5;" d="M205.466,425.606c22.111-15.447,27.127-44.12,26.252-69.895
						c-0.145-4.302,0.327-8.838-1.719-12.613c-2.048-3.774-6.822-6.354-10.674-4.541c-3.195,1.504-4.587,5.22-6.375,8.294
						c-2.378,4.09-5.921,7.474-10.09,9.637c-2.74,1.422-6.129,2.291-8.834,0.799c-3.711-2.048-4.148-7.174-4.122-11.454
						c0.05-7.975,0.099-15.951,0.15-23.925c0.027-4.279,0.039-8.648-1.291-12.709c-1.331-4.061-4.272-7.834-8.342-8.974
						c-4.072-1.14-9.105,1.207-9.964,5.395c-0.358,1.743-0.003,3.552-0.122,5.328c-0.119,1.777-0.946,3.742-2.633,4.237
						c-1.708,0.502-3.42-0.711-4.699-1.964c-4.417-4.32-7.413-9.886-10.214-15.421s-5.52-11.201-9.527-15.914
						c-4.007-4.712-9.551-8.447-15.678-8.794c-6.129-0.347-12.658,3.436-14.206,9.452c-1.553,6.033,1.966,12.153,5.796,17.036
						c5.682,7.245,12.403,13.652,19.887,18.956c1.349,0.957,2.811,1.992,3.326,3.577c0.93,2.853-1.773,5.686-4.59,6.624
						c-3.189,1.062-6.65,0.731-9.987,1.124c-3.336,0.393-6.951,1.864-8.213,5.018c-1.753,4.374,1.905,8.958,5.504,11.96
						c7.207,6.013,15.436,10.762,24.215,13.979c3.148,1.152,6.46,2.162,8.999,4.373c2.538,2.213,4.07,6.058,2.537,9.071
						c-1.535,3.018-5.471,3.982-8.768,3.37c-3.296-0.611-6.248-2.401-9.39-3.586c-5.88-2.22-13.474-1.814-17.241,3.268
						c-2.475,3.341-2.693,7.992-1.441,11.974c1.251,3.982,3.791,7.412,6.487,10.575c9.425,11.057,21.49,19.959,35.132,24.689
						C179.27,429.284,191.909,430.564,205.466,425.606"/>
				</g>
			</g>
		</g>
		<g>
			<g>
				<g>
					<g>
						<path style="fill:#E0E0E0;" d="M205.804,444.715c-0.934-10.21-3.173-22.268-6.991-35.266
							c-3.793-13.007-9.134-26.92-15.22-41.28c-1.535-3.584-3.051-7.125-4.545-10.616c-1.5-3.48-2.987-6.933-4.65-10.219
							c-3.299-6.589-6.972-12.672-10.64-18.337c-3.666-5.669-7.352-10.915-10.834-15.794c-3.494-4.875-6.836-9.356-10.057-13.311
							c-6.418-7.937-12.342-13.714-16.57-17.514c-2.11-1.908-3.796-3.333-4.952-4.285c-0.556-0.452-0.992-0.807-1.321-1.074
							c-0.3-0.238-0.458-0.354-0.467-0.344c-0.01,0.011,0.131,0.148,0.415,0.407c0.316,0.282,0.737,0.656,1.27,1.133
							c1.121,0.99,2.773,2.452,4.85,4.392c4.158,3.865,9.999,9.683,16.344,17.641c3.184,3.966,6.492,8.456,9.957,13.34
							c3.456,4.893,7.117,10.145,10.758,15.81c3.641,5.662,7.286,11.731,10.557,18.288c1.649,3.271,3.12,6.694,4.621,10.184
							c1.493,3.489,3.007,7.029,4.54,10.611c6.08,14.349,11.428,28.22,15.249,41.177c3.844,12.946,6.13,24.944,7.131,35.111"/>
					</g>
				</g>
			</g>
		</g>
		<g>
			<g>
				<g>
					<g>
						<path style="fill:#E0E0E0;" d="M174.172,347.303c0.053,0.008,0.199-0.642,0.418-1.825c0.225-1.183,0.493-2.903,0.794-5.035
							c0.605-4.26,1.24-10.173,1.915-16.693c0.675-6.525,1.392-12.41,2.06-16.65c0.329-2.12,0.611-3.835,0.822-5.016
							c0.204-1.184,0.292-1.845,0.239-1.858c-0.053-0.012-0.242,0.626-0.538,1.793c-0.303,1.165-0.671,2.869-1.069,4.984
							c-0.812,4.23-1.62,10.131-2.295,16.661c-0.65,6.436-1.237,12.259-1.686,16.708c-0.215,2.009-0.398,3.701-0.545,5.06
							C174.163,346.628,174.118,347.295,174.172,347.303z"/>
					</g>
				</g>
			</g>
		</g>
		<g>
			<g>
				<g>
					<g>
						<path style="fill:#E0E0E0;" d="M119.158,337.022c-0.001,0.055,0.781,0.145,2.194,0.263c1.412,0.126,3.455,0.296,5.972,0.589
							c5.039,0.544,11.973,1.539,19.575,2.971c7.602,1.447,14.426,3.048,19.328,4.35c2.457,0.633,4.431,1.199,5.798,1.582
							c1.365,0.388,2.129,0.579,2.147,0.527c0.017-0.053-0.716-0.342-2.056-0.823c-1.342-0.474-3.297-1.124-5.742-1.83
							c-4.878-1.444-11.706-3.138-19.33-4.59c-7.625-1.436-14.598-2.347-19.666-2.748c-2.533-0.221-4.589-0.308-6.01-0.337
							C119.946,336.953,119.161,336.966,119.158,337.022z"/>
					</g>
				</g>
			</g>
		</g>
		<g>
			<g>
				<g>
					<g>
						<path style="fill:#E0E0E0;" d="M198.136,408.437c0.025,0.011,0.154-0.219,0.377-0.671c0.254-0.538,0.565-1.195,0.941-1.99
							c0.809-1.732,1.915-4.269,3.24-7.421c2.654-6.302,6.047-15.123,9.658-24.907c3.615-9.788,6.92-18.629,9.439-24.977
							c1.234-3.086,2.25-5.624,3.005-7.511c0.323-0.819,0.589-1.494,0.807-2.049c0.176-0.471,0.257-0.724,0.232-0.737
							c-0.025-0.01-0.154,0.221-0.378,0.672c-0.254,0.538-0.564,1.194-0.941,1.989c-0.809,1.732-1.915,4.268-3.24,7.421
							c-2.654,6.302-6.046,15.123-9.66,24.912c-3.613,9.785-6.919,18.625-9.437,24.974c-1.236,3.085-2.25,5.624-3.005,7.51
							c-0.323,0.819-0.589,1.496-0.806,2.049C198.192,408.173,198.111,408.426,198.136,408.437z"/>
					</g>
				</g>
			</g>
		</g>
		<g>
			<g>
				<g>
					<g>
						<path style="fill:#E0E0E0;" d="M125.031,384.875c-0.007,0.027,0.243,0.129,0.726,0.299c0.572,0.191,1.273,0.426,2.123,0.712
							c1.961,0.636,4.608,1.494,7.829,2.537c6.61,2.144,15.705,5.209,25.75,8.61c10.048,3.403,19.181,6.388,25.837,8.395
							c3.328,1.005,6.028,1.79,7.905,2.295c0.868,0.228,1.583,0.415,2.165,0.569c0.497,0.121,0.763,0.172,0.77,0.145
							c0.007-0.026-0.243-0.129-0.725-0.3c-0.57-0.19-1.272-0.425-2.123-0.71c-1.961-0.636-4.607-1.493-7.827-2.537
							c-6.61-2.143-15.706-5.209-25.755-8.611c-10.045-3.402-19.177-6.386-25.833-8.393c-3.328-1.005-6.028-1.791-7.907-2.295
							c-0.868-0.228-1.582-0.417-2.165-0.569C125.304,384.899,125.04,384.849,125.031,384.875z"/>
					</g>
				</g>
			</g>
		</g>
	</g>
	<g>
		<path style="fill:#E0E0E0;" d="M256.485,155.214v34.168c0,6.182-5.011,11.194-11.194,11.194H122.774
			c-6.183,0-11.194-5.012-11.194-11.194v-28.87l-15.253-16.026l148.929-0.466C251.452,144.001,256.485,149.018,256.485,155.214z"/>
		<g>
			<polygon style="fill:#FAFAFA;" points="129.64,164.721 240.817,164.208 240.805,160.791 129.629,161.304 			"/>
		</g>
		<g>
			<polygon style="fill:#FAFAFA;" points="129.64,175.963 240.817,175.449 240.805,172.032 129.629,172.546 			"/>
		</g>
		<g>
			
				<rect x="129.633" y="183.395" transform="matrix(1 -0.0049 0.0049 1 -0.9092 0.7485)" style="fill:#FAFAFA;" width="43.99" height="3.417"/>
		</g>
	</g>
</g>
<g id="Background_Simple" style="display:none;">
	<path style="display:inline;fill:#F5F5F5;" d="M610.079,121.775c23.986,68.559,3.257,148.503-44.84,202.931
		c-48.097,54.428-120.276,84.36-192.743,89.287c-51.729,3.517-120.408-5.674-163.537-34.452
		c-43.129-28.779-73.105-71.064-62.712-125.58c3.668-19.237,16.094-44.958,30.909-57.766c23.656-20.451,59.04-16.703,89.914-11.74
		c30.874,4.962,66.224,8.798,89.969-11.549c18.245-15.634,23.914-41.001,35.205-62.21c19.199-36.062,57.52-61.203,98.245-64.457
		c5.656-0.452,11.334-0.479,16.983-0.105c43.952,2.915,82.404,30.699,100.464,70.875L610.079,121.775z"/>
</g>
<g id="Floor">
	<g>
		<path style="fill:#263238;" d="M669.182,464.822c0,0.144-129.014,0.26-288.125,0.26c-159.166,0-288.153-0.116-288.153-0.26
			c0-0.144,128.987-0.26,288.153-0.26C540.167,464.562,669.182,464.679,669.182,464.822z"/>
	</g>
</g>
<g id="Device">
	<g>
		<g>
			<g>
				<g>
					<path style="fill:#263238;" d="M566.85,218.268v235.006c0,6.378-5.171,11.549-11.549,11.549H207.997
						c-6.378,0-11.549-5.171-11.549-11.549V218.267c0-6.378,5.171-11.549,11.549-11.549h347.303
						C561.68,206.718,566.85,211.889,566.85,218.268z"/>
				</g>
				<g>
					
						<rect x="255.542" y="181.106" transform="matrix(6.123234e-17 -1 1 6.123234e-17 40.6841 712.2255)" style="fill:#FFFFFF;" width="241.826" height="309.33"/>
				</g>
				<g>
					
						<ellipse transform="matrix(0.2288 -0.9735 0.9735 0.2288 95.9447 792.6478)" style="fill:#455A64;" cx="548.237" cy="335.77" rx="9.903" ry="9.903"/>
				</g>
				<g>
					<path style="fill:#455A64;" d="M211.208,298.117v75.307c0,0.671-0.544,1.215-1.215,1.215h-1.661
						c-0.671,0-1.215-0.544-1.215-1.215v-75.307c0-0.671,0.544-1.215,1.215-1.215h1.661
						C210.663,296.902,211.208,297.446,211.208,298.117z"/>
				</g>
			</g>
		</g>
		<g>
			<path style="fill:#E8505B;" d="M313.644,342.523c0.284,13.799-10.671,25.215-24.47,25.5c-13.799,0.284-25.216-10.671-25.5-24.47
				c-0.285-13.799,10.671-25.216,24.47-25.5C301.942,317.768,313.359,328.724,313.644,342.523z"/>
			<path style="opacity:0.3;fill:#FFFFFF;" d="M313.644,342.523c0.284,13.799-10.671,25.215-24.47,25.5
				c-13.799,0.284-25.216-10.671-25.5-24.47c-0.285-13.799,10.671-25.216,24.47-25.5
				C301.942,317.768,313.359,328.724,313.644,342.523z"/>
			<g>
				<path style="fill:#263238;" d="M280.037,336.742c0.947-0.078,1.806,0.967,1.919,2.334c0.112,1.367-0.564,2.538-1.511,2.617
					c-0.948,0.078-1.807-0.967-1.919-2.334C278.413,337.991,279.09,336.82,280.037,336.742z"/>
			</g>
			<g>
				<path style="fill:#263238;" d="M295.925,336.414c-0.949-0.039-1.764,1.04-1.821,2.411c-0.056,1.37,0.668,2.513,1.618,2.552
					c0.949,0.039,1.765-1.041,1.821-2.411C297.599,337.596,296.874,336.453,295.925,336.414z"/>
			</g>
			<g>
				<path style="fill:#263238;" d="M298.65,347.987c0,0.294-4.658,0.533-10.403,0.533c-5.747,0-10.404-0.239-10.404-0.533
					c0-0.294,4.657-0.533,10.404-0.533C293.992,347.454,298.65,347.693,298.65,347.987z"/>
			</g>
			<g>
				<path style="fill:#263238;" d="M281.947,333.871c-0.061,0.297-1.246,0.286-2.636,0.513c-1.394,0.208-2.519,0.58-2.668,0.315
					c-0.153-0.24,0.892-1.121,2.503-1.369C280.755,333.075,282.019,333.595,281.947,333.871z"/>
			</g>
			<g>
				<path style="fill:#263238;" d="M300.435,335.082c-0.189,0.238-1.268-0.327-2.656-0.742c-1.382-0.435-2.592-0.573-2.615-0.876
					c-0.038-0.282,1.325-0.64,2.927-0.143C299.697,333.809,300.625,334.87,300.435,335.082z"/>
			</g>
		</g>
		<g>
			<path style="fill:#E8505B;" d="M495.468,340.431c0.295,14.303-11.061,26.136-25.364,26.431
				c-14.303,0.295-26.137-11.061-26.432-25.364c-0.295-14.303,11.061-26.137,25.364-26.432
				C483.339,314.772,495.173,326.129,495.468,340.431z"/>
			<path style="opacity:0.3;" d="M495.468,340.431c0.295,14.303-11.061,26.136-25.364,26.431
				c-14.303,0.295-26.137-11.061-26.432-25.364c-0.295-14.303,11.061-26.137,25.364-26.432
				C483.339,314.772,495.173,326.129,495.468,340.431z"/>
			<g>
				<path style="fill:#263238;" d="M460.634,334.439c0.982-0.081,1.872,1.002,1.989,2.419c0.117,1.417-0.584,2.631-1.566,2.712
					c-0.982,0.081-1.873-1.003-1.989-2.419C458.951,335.734,459.652,334.52,460.634,334.439z"/>
			</g>
			<g>
				<path style="fill:#263238;" d="M477.102,334.1c-0.984-0.04-1.829,1.078-1.888,2.499c-0.058,1.421,0.693,2.605,1.677,2.645
					c0.984,0.04,1.829-1.079,1.888-2.499C478.837,335.324,478.086,334.139,477.102,334.1z"/>
			</g>
			<g>
				<path style="fill:#263238;" d="M479.927,346.095c-0.107,0.14-1.182-0.623-3.034-1.573c-1.847-0.928-4.578-1.956-7.712-1.905
					c-3.133,0.059-5.855,1.127-7.732,2.007c-1.877,0.913-2.993,1.612-3.091,1.471c-0.072-0.098,0.891-1.02,2.737-2.136
					c1.838-1.078,4.685-2.342,8.068-2.408c3.386-0.055,6.284,1.18,8.097,2.313C479.089,345.025,480.001,346.005,479.927,346.095z"/>
			</g>
			<g>
				<path style="fill:#263238;" d="M462.614,331.463c0.088,0.11-0.082,0.434-0.511,0.811c-0.426,0.372-1.137,0.789-2.027,0.949
					c-0.891,0.16-1.725-0.005-2.247-0.25c-0.529-0.245-0.772-0.526-0.713-0.651c0.136-0.283,1.354,0.124,2.774-0.149
					C461.314,331.92,462.417,331.215,462.614,331.463z"/>
			</g>
			<g>
				<path style="fill:#263238;" d="M481.777,332.719c0.043,0.131-0.241,0.384-0.813,0.565c-0.564,0.174-1.449,0.23-2.328-0.084
					c-0.88-0.305-1.527-0.838-1.905-1.273c-0.381-0.44-0.518-0.784-0.417-0.885c0.225-0.233,1.267,0.659,2.669,1.15
					C480.378,332.701,481.676,332.419,481.777,332.719z"/>
			</g>
		</g>
		<g>
			<g>
				<polygon style="fill:#E0E0E0;" points="419.932,412.864 425.933,409.889 431.785,413.146 430.811,406.52 435.717,401.96 
					429.113,400.84 426.293,394.765 423.187,400.698 416.538,401.503 421.221,406.291 				"/>
			</g>
			<g>
				<polygon style="fill:#E8505B;" points="395.452,412.864 401.452,409.889 407.305,413.146 406.33,406.52 411.236,401.96 
					404.633,400.84 401.813,394.765 398.706,400.698 392.057,401.503 396.741,406.291 				"/>
			</g>
			<g>
				<polygon style="fill:#E8505B;" points="370.971,412.864 376.972,409.889 382.825,413.146 381.85,406.52 386.756,401.96 
					380.153,400.84 377.333,394.765 374.226,400.698 367.577,401.503 372.26,406.291 				"/>
			</g>
			<g>
				<polygon style="fill:#E8505B;" points="346.491,412.864 352.492,409.889 358.344,413.146 357.37,406.52 362.276,401.96 
					355.673,400.84 352.852,394.765 349.746,400.698 343.097,401.503 347.78,406.291 				"/>
			</g>
			<g>
				<polygon style="fill:#E8505B;" points="322.011,412.864 328.012,409.889 333.864,413.146 332.889,406.52 337.796,401.96 
					331.192,400.84 328.372,394.765 325.266,400.698 318.616,401.503 323.3,406.291 				"/>
			</g>
		</g>
		<g>
			<path style="fill:#263238;" d="M435.991,265.514c0,0.147-26.857,0.267-59.978,0.267c-33.133,0-59.984-0.119-59.984-0.267
				c0-0.147,26.851-0.267,59.984-0.267C409.135,265.247,435.991,265.366,435.991,265.514z"/>
		</g>
		<g>
			<path style="fill:#263238;" d="M406.503,258.309c0,0.147-13.265,0.267-29.625,0.267c-16.365,0-29.628-0.119-29.628-0.267
				c0-0.147,13.262-0.266,29.628-0.266C393.238,258.042,406.503,258.162,406.503,258.309z"/>
		</g>
		<g>
			<g>
				<g>
					<path style="fill:#E8505B;" d="M415.246,334.296c0.388,18.841-14.571,34.43-33.412,34.818
						c-18.841,0.388-34.431-14.571-34.819-33.412c-0.389-18.841,14.571-34.431,33.412-34.819
						C399.269,300.495,414.857,315.455,415.246,334.296z"/>
					<g>
						<path style="fill:#263238;" d="M369.358,326.402c1.293-0.107,2.466,1.32,2.62,3.187c0.153,1.867-0.77,3.466-2.063,3.573
							c-1.294,0.106-2.467-1.321-2.62-3.187C367.142,328.108,368.065,326.508,369.358,326.402z"/>
					</g>
					<g>
						<path style="fill:#263238;" d="M391.052,325.955c-1.296-0.053-2.409,1.42-2.487,3.291c-0.077,1.871,0.912,3.431,2.209,3.485
							c1.296,0.053,2.41-1.421,2.487-3.293C393.338,327.569,392.349,326.008,391.052,325.955z"/>
					</g>
					<g>
						<path style="fill:#263238;" d="M394.773,337.154c0.052,0.052-0.224,0.404-0.774,1.001c-0.53,0.619-1.412,1.398-2.558,2.304
							c-1.193,0.831-2.657,1.83-4.513,2.472c-1.829,0.676-3.991,1.09-6.255,0.98c-2.27-0.085-4.361-0.7-6.153-1.418
							c-1.811-0.701-3.301-1.608-4.532-2.375c-2.416-1.617-3.698-2.874-3.626-2.965c0.107-0.142,1.553,0.901,4.017,2.32
							c1.252,0.668,2.739,1.481,4.494,2.102c1.739,0.64,3.725,1.192,5.85,1.269c2.121,0.101,4.134-0.254,5.876-0.841
							c1.765-0.552,3.203-1.441,4.41-2.165c1.163-0.799,2.1-1.473,2.708-1.991C394.346,337.354,394.721,337.102,394.773,337.154z"/>
					</g>
					<g>
						<path style="fill:#263238;" d="M370.9,318.725c-0.059,0.301-1.692,0.193-3.63,0.509c-1.943,0.291-3.464,0.892-3.612,0.623
							c-0.154-0.236,1.288-1.346,3.448-1.677C369.263,317.836,370.975,318.453,370.9,318.725z"/>
					</g>
					<g>
						<path style="fill:#263238;" d="M398.371,320.32c-0.188,0.243-1.634-0.619-3.569-1.199c-1.927-0.606-3.608-0.703-3.627-1.01
							c-0.041-0.279,1.792-0.677,3.94-0.009C397.268,318.755,398.561,320.113,398.371,320.32z"/>
					</g>
				</g>
				<g>
					<path style="fill:#263238;" d="M366.918,334.7c0.133-0.024,0.35,0.329,0.385,0.974c0.039,0.638-0.169,1.55-0.741,2.358
						c-0.574,0.807-1.367,1.305-1.982,1.478c-0.621,0.18-1.025,0.092-1.046-0.042c-0.05-0.296,1.26-0.734,2.159-2.053
						C366.641,336.131,366.623,334.75,366.918,334.7z"/>
				</g>
				<g>
					<path style="fill:#263238;" d="M397.658,337.836c0.026,0.135-0.254,0.341-0.788,0.387c-0.526,0.05-1.286-0.121-1.943-0.607
						c-0.657-0.488-1.04-1.166-1.144-1.684c-0.111-0.524,0.006-0.852,0.142-0.866c0.298-0.024,0.636,0.985,1.638,1.694
						C396.53,337.512,397.594,337.544,397.658,337.836z"/>
				</g>
			</g>
			<g>
				<path style="fill:#E8505B;" d="M422.855,334.7c0,0-0.03-0.232-0.062-0.686c-0.03-0.471-0.073-1.141-0.128-2.012
					c-0.026-0.444-0.056-0.938-0.088-1.482c-0.057-0.543-0.173-1.131-0.268-1.771c-0.102-0.64-0.211-1.328-0.327-2.063
					c-0.088-0.742-0.363-1.494-0.553-2.311c-0.746-3.274-2.277-7.144-4.693-11.246c-2.436-4.084-5.95-8.352-10.737-11.974
					c-0.601-0.448-1.209-0.901-1.825-1.359c-0.641-0.42-1.316-0.805-1.984-1.216c-0.681-0.387-1.327-0.859-2.058-1.19
					c-0.723-0.347-1.453-0.697-2.19-1.05c-0.369-0.175-0.741-0.351-1.114-0.528c-0.388-0.141-0.778-0.283-1.17-0.426
					c-0.784-0.286-1.575-0.574-2.374-0.865c-0.806-0.266-1.65-0.438-2.485-0.665c-0.843-0.191-1.673-0.488-2.552-0.578
					c-1.743-0.247-3.505-0.607-5.331-0.617c-0.909-0.031-1.825-0.12-2.748-0.106c-0.923,0.048-1.853,0.096-2.79,0.144
					c-0.467,0.033-0.94,0.029-1.408,0.091l-1.406,0.216c-0.938,0.156-1.892,0.265-2.835,0.461c-1.86,0.506-3.788,0.884-5.62,1.649
					c-1.891,0.605-3.669,1.539-5.496,2.415c-0.89,0.483-1.743,1.045-2.624,1.567c-0.431,0.276-0.892,0.511-1.302,0.823l-1.241,0.929
					c-1.713,1.176-3.211,2.646-4.779,4.062c-0.71,0.783-1.424,1.569-2.141,2.359l-0.539,0.593l-0.484,0.641l-0.964,1.291
					l-0.969,1.296l-0.848,1.386l-0.847,1.395l-0.425,0.7l-0.36,0.737c-0.475,0.986-0.952,1.977-1.43,2.971
					c-0.38,1.036-0.761,2.076-1.143,3.12c-1.374,4.228-2.113,8.72-2.174,13.29c0.06,4.572,0.798,9.065,2.171,13.295
					c0.382,1.044,0.763,2.085,1.143,3.121c0.479,0.995,0.956,1.985,1.431,2.972l0.36,0.737l0.425,0.7l0.847,1.396l0.848,1.387
					l0.969,1.297l0.965,1.291l0.484,0.641l0.539,0.593c0.717,0.79,1.431,1.577,2.142,2.359c1.569,1.417,3.067,2.887,4.78,4.063
					l1.241,0.929c0.411,0.312,0.871,0.547,1.302,0.823c0.881,0.523,1.734,1.085,2.624,1.568c1.828,0.876,3.606,1.811,5.497,2.416
					c1.832,0.766,3.76,1.143,5.62,1.65c0.943,0.195,1.898,0.305,2.836,0.461l1.406,0.216c0.468,0.062,0.941,0.059,1.408,0.091
					c0.937,0.048,1.867,0.096,2.79,0.144c0.923,0.014,1.839-0.075,2.748-0.106c1.826-0.01,3.588-0.37,5.332-0.617
					c0.88-0.09,1.709-0.387,2.552-0.578c0.835-0.227,1.679-0.398,2.485-0.665c0.799-0.291,1.59-0.579,2.374-0.865
					c0.392-0.143,0.782-0.285,1.17-0.426c0.373-0.177,0.744-0.353,1.114-0.528c0.738-0.354,1.468-0.704,2.19-1.05
					c0.731-0.332,1.376-0.803,2.058-1.19c0.668-0.411,1.343-0.796,1.984-1.216c0.615-0.458,1.223-0.911,1.825-1.359
					c4.786-3.623,8.3-7.89,10.736-11.974c2.415-4.102,3.947-7.971,4.692-11.245c0.19-0.817,0.466-1.569,0.553-2.311
					c0.117-0.735,0.226-1.423,0.327-2.063c0.095-0.64,0.211-1.228,0.268-1.77c0.032-0.544,0.061-1.038,0.088-1.482
					c0.055-0.871,0.098-1.54,0.128-2.012C422.825,334.932,422.855,334.7,422.855,334.7s0.007,0.233-0.007,0.687
					c-0.018,0.473-0.043,1.143-0.075,2.018c-0.019,0.445-0.039,0.942-0.062,1.488c-0.049,0.545-0.156,1.136-0.243,1.779
					c-0.094,0.644-0.196,1.336-0.304,2.075c-0.08,0.746-0.348,1.504-0.532,2.327c-0.718,3.298-2.229,7.202-4.638,11.347
					c-2.428,4.128-5.949,8.447-10.763,12.122c-0.605,0.454-1.217,0.914-1.836,1.378c-0.645,0.427-1.325,0.818-1.997,1.235
					c-0.686,0.394-1.337,0.871-2.073,1.208c-0.728,0.352-1.464,0.708-2.208,1.068c-0.372,0.178-0.747,0.357-1.123,0.537
					c-0.391,0.144-0.785,0.289-1.18,0.434c-0.791,0.291-1.589,0.584-2.395,0.881c-0.814,0.272-1.665,0.448-2.508,0.68
					c-0.851,0.195-1.689,0.497-2.577,0.591c-1.761,0.255-3.541,0.622-5.387,0.637c-0.919,0.034-1.845,0.125-2.778,0.113
					c-0.933-0.046-1.874-0.092-2.821-0.139c-0.473-0.032-0.951-0.028-1.424-0.09l-1.422-0.215c-0.949-0.155-1.914-0.265-2.869-0.461
					c-1.883-0.507-3.833-0.888-5.689-1.658c-1.914-0.61-3.715-1.551-5.565-2.436c-0.901-0.487-1.766-1.054-2.658-1.582
					c-0.437-0.279-0.903-0.517-1.319-0.832l-1.257-0.938c-1.735-1.189-3.254-2.674-4.842-4.108c-0.72-0.792-1.444-1.587-2.171-2.386
					l-0.546-0.6l-0.491-0.648l-0.978-1.306l-0.982-1.312l-0.86-1.403l-0.859-1.413l-0.431-0.709l-0.365-0.746
					c-0.481-0.999-0.965-2.002-1.45-3.009c-0.385-1.049-0.771-2.103-1.159-3.16c-1.393-4.283-2.141-8.834-2.201-13.462
					c0.061-4.627,0.811-9.176,2.204-13.458c0.388-1.057,0.774-2.11,1.159-3.159c0.485-1.007,0.969-2.009,1.45-3.008l0.365-0.746
					l0.431-0.708l0.858-1.412l0.86-1.402l0.982-1.312l0.978-1.306l0.491-0.648l0.546-0.6c0.727-0.799,1.45-1.594,2.17-2.385
					c1.589-1.433,3.107-2.918,4.842-4.106l1.257-0.938c0.416-0.314,0.882-0.553,1.319-0.831c0.892-0.528,1.757-1.095,2.658-1.582
					c1.85-0.885,3.651-1.826,5.565-2.436c1.855-0.77,3.805-1.151,5.688-1.658c0.955-0.196,1.92-0.306,2.869-0.461l1.422-0.215
					c0.473-0.061,0.951-0.058,1.424-0.09c0.947-0.047,1.887-0.093,2.821-0.139c0.933-0.012,1.859,0.079,2.778,0.113
					c1.845,0.016,3.626,0.382,5.386,0.637c0.888,0.094,1.726,0.395,2.577,0.591c0.843,0.231,1.694,0.408,2.508,0.68
					c0.806,0.296,1.604,0.59,2.395,0.881c0.395,0.146,0.789,0.29,1.18,0.434c0.376,0.18,0.751,0.359,1.123,0.537
					c0.743,0.36,1.479,0.716,2.208,1.068c0.736,0.337,1.387,0.815,2.073,1.208c0.672,0.418,1.352,0.809,1.997,1.235
					c0.619,0.465,1.231,0.924,1.836,1.378c4.815,3.674,8.336,7.994,10.764,12.121c2.409,4.145,3.92,8.05,4.639,11.348
					c0.184,0.823,0.452,1.581,0.532,2.327c0.108,0.74,0.21,1.432,0.304,2.076c0.087,0.643,0.195,1.234,0.244,1.78
					c0.023,0.546,0.044,1.042,0.062,1.488c0.033,0.874,0.058,1.545,0.075,2.018C422.861,334.467,422.855,334.7,422.855,334.7z"/>
			</g>
		</g>
		<rect x="221.79" y="214.857" style="fill:#E0E0E0;" width="309.33" height="15.433"/>
		<path style="fill:#FFFFFF;" d="M231.771,222.148c0,1.154-0.936,2.09-2.09,2.09c-1.154,0-2.09-0.936-2.09-2.09
			c0-1.154,0.936-2.09,2.09-2.09C230.835,220.058,231.771,220.994,231.771,222.148z"/>
		<path style="fill:#FFFFFF;" d="M238.714,222.148c0,1.154-0.936,2.09-2.09,2.09c-1.154,0-2.09-0.936-2.09-2.09
			c0-1.154,0.936-2.09,2.09-2.09C237.779,220.058,238.714,220.994,238.714,222.148z"/>
		<path style="fill:#FFFFFF;" d="M245.657,222.148c0,1.154-0.936,2.09-2.09,2.09c-1.154,0-2.09-0.936-2.09-2.09
			c0-1.154,0.936-2.09,2.09-2.09C244.722,220.058,245.657,220.994,245.657,222.148z"/>
		<g>
			<path style="fill:#E0E0E0;" d="M497.039,277.683c0,0.147-53.673,0.267-119.866,0.267c-66.216,0-119.878-0.119-119.878-0.267
				c0-0.147,53.661-0.267,119.878-0.267C443.366,277.417,497.039,277.536,497.039,277.683z"/>
		</g>
		<g>
			<path style="fill:#E0E0E0;" d="M497.039,283.626c0,0.147-53.673,0.267-119.866,0.267c-66.216,0-119.878-0.119-119.878-0.267
				c0-0.147,53.661-0.267,119.878-0.267C443.366,283.359,497.039,283.478,497.039,283.626z"/>
		</g>
	</g>
</g>
<g id="Character">
	<g>
		<g>
			<g>
				<g>
					<path style="fill:#455A64;" d="M339.702,208.349c0,0-2.115-4.787-2.509-5.841c-1.075-2.872-7.995-22.101-6.336-25.012
						c7.674-13.464,13.619-23.036,28.755-23.036l26.725-0.179c0,0,25.328-5.157,43.174,52.436L339.702,208.349z"/>
					<path style="fill:#455A64;" d="M283.317,213.173l34.995-7.543l41.144-21.642l0.156-29.528
						c-6.174-1.703-17.985,2.579-39.253,13.414l-31.592,16.31C277.946,189.769,275.264,204.04,283.317,213.173L283.317,213.173z"/>
				</g>
				<g>
					<g>
						<g>
							<path style="fill:#B77153;" d="M362.08,270.331c-0.505-1.661-0.162-2.728,2.259-1.916c5.34,1.791,10.108,1.208,11.275,0.172
								c1.166-1.037,0.095-3.02-1.64-2.85c-1.403,0.137-3.82-0.344-5.624-0.779c-1.487-0.357-2.909-0.949-4.194-1.772
								c-1.113-0.712-2.076-1.375-2.93-1.987c0,0-4.922-3.557-6.466-6.418l-16.888,7.245l2.72,8.459c0,0,0.885,4.98,5.712,6.553
								c4.828,1.573,12.505,0.982,12.505,0.982c1.408-0.923,6.842,6.939,8.485,9.713c1.623,2.742,3.607,3.118,4.243,1.423
								c0.434-1.156-4.393-9.769-6.082-12.476C364.532,275.201,362.689,272.334,362.08,270.331"/>
						</g>
						<g>
							<path style="fill:#995037;" d="M350.639,278.043c-0.014,0.06-0.417,0.043-0.993-0.24c-0.573-0.276-1.282-0.867-1.764-1.726
								c-0.48-0.861-0.613-1.774-0.548-2.407c0.061-0.639,0.257-0.991,0.315-0.971c0.151,0.02-0.21,1.552,0.698,3.118
								C349.206,277.41,350.7,277.904,350.639,278.043z"/>
						</g>
						<g>
							<path style="fill:#995037;" d="M355.981,278.247c-0.018,0.06-0.401,0.024-0.942-0.266c-0.538-0.284-1.199-0.866-1.649-1.693
								c-0.447-0.83-0.573-1.701-0.517-2.307c0.053-0.611,0.231-0.952,0.292-0.934c0.152,0.021-0.149,1.482,0.694,2.987
								C354.659,277.562,356.047,278.108,355.981,278.247z"/>
						</g>
					</g>
					<g>
						<path style="fill:#455A64;" d="M282.323,212.028c0,0,53.614,61.619,53.551,60.602c-0.063-1.017,24.033-19.034,24.033-19.034
							l-52.567-62.613L282.323,212.028z"/>
						<g>
							<path style="fill:#263238;" d="M314.841,199.919c0.014-0.012,0.143,0.114,0.376,0.365c0.27,0.3,0.6,0.668,1,1.114
								c0.904,1.043,2.121,2.449,3.603,4.16c3.024,3.527,7.174,8.424,11.733,13.853c4.56,5.431,8.665,10.367,11.616,13.957
								c1.428,1.756,2.603,3.199,3.474,4.27c0.37,0.472,0.675,0.861,0.924,1.179c0.207,0.273,0.309,0.423,0.295,0.435
								c-0.014,0.012-0.143-0.114-0.376-0.364c-0.27-0.3-0.599-0.667-1-1.113c-0.903-1.043-2.121-2.449-3.602-4.159
								c-3.024-3.527-7.175-8.425-11.736-13.857c-4.559-5.43-8.664-10.366-11.615-13.956c-1.428-1.756-2.603-3.199-3.474-4.27
								c-0.37-0.472-0.675-0.861-0.924-1.178C314.929,200.08,314.827,199.931,314.841,199.919z"/>
						</g>
					</g>
				</g>
				<g>
					<path style="fill:#263238;" d="M409.688,207.02c-0.112-0.031,0.59-1.47,0.641-3.948c0.024-1.228-0.152-2.706-0.693-4.234
						c-0.536-1.533-1.494-3.057-2.811-4.41c-1.3-1.368-2.699-2.547-3.824-3.787c-1.139-1.233-1.958-2.545-2.402-3.745
						c-0.454-1.2-0.517-2.265-0.435-2.971c0.086-0.71,0.257-1.072,0.279-1.064c0.116-0.008-0.473,1.594,0.507,3.895
						c0.469,1.132,1.286,2.37,2.411,3.549c1.118,1.194,2.52,2.356,3.852,3.756c1.349,1.382,2.36,3.011,2.888,4.615
						c0.538,1.603,0.679,3.142,0.605,4.408c-0.069,1.271-0.328,2.274-0.562,2.939C409.913,206.692,409.712,207.031,409.688,207.02z"
						/>
				</g>
				<g>
					<path style="fill:#263238;" d="M337.375,159.604c-0.007-0.017,0.261-0.144,0.778-0.37c0.519-0.223,1.297-0.523,2.321-0.847
						c1.029-0.308,2.312-0.63,3.84-0.782c1.52-0.134,3.313-0.105,5.174,0.482c1.865,0.558,3.741,1.719,5.291,3.404
						c1.559,1.692,2.626,3.988,3.179,6.481c0.537,2.493,0.821,5.19,0.508,7.972c-0.323,2.761-1.234,5.605-2.965,8.035
						c-1.736,2.43-4.077,4.222-6.413,5.687c-2.346,1.479-4.71,2.688-6.949,3.868c-4.472,2.348-8.503,4.464-11.907,6.25
						c-3.363,1.744-6.1,3.163-8.047,4.172c-0.921,0.465-1.654,0.835-2.2,1.11c-0.505,0.248-0.775,0.371-0.783,0.355
						c-0.008-0.016,0.245-0.171,0.735-0.451c0.534-0.298,1.252-0.697,2.154-1.199c1.927-1.045,4.637-2.515,7.966-4.321
						c3.387-1.815,7.397-3.964,11.846-6.348c2.23-1.19,4.595-2.413,6.907-3.879c2.307-1.454,4.584-3.211,6.258-5.555
						c1.669-2.342,2.558-5.097,2.88-7.786c0.313-2.697,0.045-5.359-0.469-7.804c-0.529-2.439-1.543-4.652-3.029-6.293
						c-1.481-1.636-3.283-2.781-5.077-3.34c-1.792-0.592-3.539-0.648-5.034-0.544c-1.503,0.121-2.779,0.409-3.807,0.684
						c-1.025,0.291-1.811,0.558-2.34,0.748C337.664,159.528,337.382,159.621,337.375,159.604z"/>
				</g>
				<g>
					<path style="fill:#263238;" d="M320.737,205.567c-0.173,0.05-0.616-3.533-2.991-7.145c-2.325-3.646-5.412-5.515-5.296-5.652
						c0.03-0.051,0.835,0.337,1.973,1.218c1.137,0.876,2.569,2.296,3.771,4.145c1.195,1.852,1.905,3.74,2.239,5.135
						C320.771,204.667,320.796,205.56,320.737,205.567z"/>
				</g>
				<g>
					<path style="fill:#FAFAFA;" d="M399.542,198.874c0,0-0.378,0.157-1.139,0.306c-0.757,0.151-1.908,0.29-3.38,0.145
						c-1.465-0.141-3.262-0.599-5.082-1.67c-1.812-1.057-3.603-2.833-4.693-5.271c-1.081-2.41-1.538-5.475-0.647-8.509
						c0.459-1.505,1.364-2.992,2.829-3.921c0.719-0.463,1.655-0.707,2.554-0.522c0.907,0.164,1.688,0.766,2.229,1.48
						c2.032,2.978,2.37,7.022,1.195,10.667c-0.612,1.819-1.615,3.558-3.031,4.965c-1.411,1.41-3.237,2.428-5.211,2.946
						c-3.939,1.046-8.322,0.103-11.14-2.593c-2.807-2.696-3.912-6.677-3.342-10.156c0.264-1.753,0.996-3.38,2.04-4.706
						c0.539-0.649,1.2-1.219,1.996-1.528c0.788-0.326,1.702-0.297,2.456,0.027c1.515,0.669,2.442,2.157,2.613,3.633
						c0.173,1.488-0.257,2.89-0.811,4.086c-1.174,2.385-2.723,4.251-4.256,5.675c-1.542,1.421-3.065,2.416-4.37,3.093
						c-1.306,0.68-2.382,1.076-3.121,1.304c-0.367,0.122-0.656,0.183-0.847,0.235c-0.192,0.048-0.292,0.068-0.294,0.059
						c-0.002-0.009,0.092-0.046,0.279-0.111c0.185-0.069,0.469-0.147,0.828-0.285c0.723-0.259,1.779-0.684,3.057-1.385
						c1.277-0.698,2.764-1.707,4.265-3.128c1.49-1.42,2.997-3.285,4.118-5.616c0.528-1.165,0.917-2.505,0.745-3.878
						c-0.159-1.34-1.04-2.702-2.375-3.275c-0.663-0.276-1.43-0.298-2.12-0.01c-0.694,0.273-1.3,0.792-1.801,1.402
						c-0.973,1.251-1.673,2.809-1.916,4.484c-0.536,3.328,0.546,7.152,3.216,9.7c2.671,2.551,6.872,3.461,10.646,2.457
						c1.891-0.497,3.627-1.465,4.973-2.807c1.353-1.34,2.317-3.005,2.909-4.753c0.566-1.757,0.78-3.598,0.59-5.365
						c-0.085-0.883-0.268-1.749-0.551-2.568c-0.259-0.828-0.627-1.611-1.127-2.269c-0.495-0.655-1.167-1.167-1.936-1.309
						c-0.76-0.158-1.56,0.036-2.214,0.451c-1.33,0.827-2.216,2.237-2.649,3.647c-0.876,2.909-0.461,5.883,0.567,8.229
						c1.036,2.374,2.749,4.112,4.502,5.169c1.76,1.068,3.515,1.549,4.951,1.719C397.956,199.441,399.537,198.773,399.542,198.874z"
						/>
				</g>
				<g>
					<g>
						<path style="fill:#995037;" d="M403.58,138.874c-1.135-1.381-1.957-3.016-2.389-4.75c-0.142-0.569-0.241-1.176-0.064-1.736
							c0.177-0.559,0.706-1.046,1.29-0.991c0.6,0.057,1.007,0.616,1.329,1.126c0.942,1.494,1.854,3.022,2.466,4.678
							c0.169,0.457,0.316,0.935,0.289,1.421c-0.028,0.486-0.263,0.986-0.695,1.211c-0.473,0.246-1.072,0.109-1.505-0.202
							c-0.433-0.31-0.735-0.766-1.028-1.212"/>
						<path style="fill:#995037;" d="M406.152,137.756c-0.882-1.845-1.763-3.69-2.645-5.536c-0.262-0.548-0.529-1.116-0.547-1.723
							s0.281-1.267,0.85-1.478c0.497-0.184,1.07,0.021,1.464,0.376c0.393,0.354,0.644,0.836,0.886,1.307
							c0.416,0.809,0.832,1.618,1.248,2.427c0.34,0.661,0.684,1.333,0.823,2.064c0.139,0.73,0.048,1.539-0.414,2.121
							c-0.462,0.582-1.348,0.849-1.989,0.471"/>
						<path style="fill:#B77153;" d="M394.401,154.894c0,0-3.681-4.773-4.012-7.289c-0.331-2.515,2.754-6.978,9.364-7.981
							c3.548-0.538,5.629-1.527,6.795-2.328c0.837-0.575,1.161-1.641,0.774-2.58c-0.868-2.108-2.434-6.019-2.314-6.543
							c0.307-1.35,1.187-1.323,3.475,2.021c2.288,3.343,4.922,6.738,4.413,8.278c-0.508,1.54-8.566,6.31-8.566,6.31l2.203,3.552
							L394.401,154.894z"/>
					</g>
					<path style="fill:#455A64;" d="M416.263,203.926l-25.372-49.703l16.335-9.155l34.32,54.406c0,0,1.811,3.476,4.34,7.546h-28.77"
						/>
				</g>
			</g>
			<g>
				<path style="fill:#263238;" d="M406.963,145.068c0.006,0.011-0.09,0.078-0.282,0.199c-0.229,0.139-0.511,0.31-0.857,0.52
					c-0.806,0.47-1.907,1.111-3.285,1.914c-2.896,1.65-6.949,3.959-11.799,6.722l0.093-0.302c2.466,5.033,5.674,10.851,8.907,17.176
					c4.813,9.355,8.973,17.923,11.898,24.163c1.466,3.119,2.624,5.656,3.412,7.415c0.37,0.845,0.667,1.521,0.891,2.033
					c0.198,0.467,0.294,0.716,0.278,0.724c-0.017,0.008-0.145-0.226-0.375-0.679c-0.247-0.501-0.573-1.163-0.981-1.99
					c-0.867-1.785-2.078-4.279-3.564-7.34c-3.012-6.196-7.222-14.732-12.032-24.082c-3.229-6.316-6.415-12.152-8.843-17.214
					l-0.095-0.199l0.188-0.104c4.888-2.694,8.973-4.946,11.892-6.555c1.404-0.757,2.526-1.361,3.347-1.803
					c0.359-0.185,0.652-0.337,0.89-0.459C406.849,145.104,406.957,145.058,406.963,145.068z"/>
			</g>
			<g>
				<path style="fill:#263238;" d="M339.702,208.349c-0.12,0.067-1.542-2.365-2.716-5.623c-1.185-3.255-1.649-6.033-1.514-6.059
					c0.153-0.035,0.844,2.661,2.015,5.877C338.646,205.764,339.842,208.278,339.702,208.349z"/>
			</g>
		</g>
		<g>
			<path style="fill:#263238;" d="M395.578,135.069c3.993,1.57,8.944,0.216,11.582-3.168c2.639-3.384,2.746-8.515,0.251-12.005
				c5.729-1.45,9.302-8.058,8.142-13.853c-1.16-5.794-6.337-10.318-12.112-11.57c-2.209-0.479-4.551-0.532-6.7,0.17
				c-2.148,0.703-4.082,2.22-4.996,4.288"/>
			<g>
				<path style="fill:#E8505B;" d="M394.775,122.112c0.018,0.061-0.748,0.195-1.956,0.828c-1.184,0.624-2.837,1.898-3.827,4.122
					c-0.48,1.099-0.799,2.415-0.723,3.828c0.084,1.402,0.479,2.912,1.364,4.231c0.421,0.669,0.965,1.283,1.596,1.816
					c0.623,0.543,1.347,1,2.14,1.331c1.573,0.7,3.426,0.873,5.207,0.484c1.774-0.423,3.368-1.383,4.481-2.697
					c0.57-0.643,1.024-1.369,1.35-2.129c0.337-0.755,0.561-1.544,0.649-2.33c0.224-1.572-0.076-3.104-0.609-4.403
					c-0.544-1.306-1.403-2.353-2.314-3.135c-1.857-1.573-3.9-2.003-5.237-2.051C395.533,121.963,394.785,122.175,394.775,122.112
					c-0.004-0.018,0.18-0.069,0.536-0.149c0.354-0.087,0.894-0.161,1.59-0.162c1.37-0.015,3.502,0.364,5.474,1.968
					c0.967,0.797,1.886,1.881,2.478,3.248c0.581,1.359,0.914,2.973,0.691,4.64c-0.087,0.833-0.318,1.671-0.67,2.474
					c-0.341,0.808-0.818,1.581-1.421,2.266c-1.176,1.4-2.873,2.428-4.758,2.875c-1.892,0.415-3.866,0.225-5.533-0.525
					c-0.84-0.356-1.606-0.844-2.263-1.424c-0.666-0.57-1.237-1.225-1.678-1.937c-0.924-1.405-1.325-3.003-1.392-4.479
					c-0.061-1.488,0.297-2.864,0.821-4.002c1.08-2.302,2.835-3.57,4.076-4.151c0.627-0.302,1.146-0.469,1.502-0.545
					C394.583,122.128,394.771,122.094,394.775,122.112z"/>
			</g>
			<path style="fill:#263238;" d="M399.107,106.352c4.139-0.233,7.951-3.371,8.974-7.389c1.023-4.018-0.824-8.597-4.348-10.781
				c1.705-4.786,0.029-10.574-3.97-13.71c-3.998-3.135-10.019-3.382-14.261-0.585c-3.242-5.684-10.181-9.008-16.642-7.973
				c-6.461,1.035-12.014,6.361-13.318,12.774c-5.814-2.401-13.035-0.855-17.357,3.715c-4.322,4.57-5.463,11.866-2.742,17.537
				c-6.323,0.547-11.582,6.792-11.044,13.116c0.538,6.324,6.774,11.592,13.099,11.063c-1.29,4.201,0.331,9.132,3.862,11.747
				c3.531,2.615,8.721,2.729,12.363,0.27c2.324,3.754,6.909,5.975,11.295,5.471c4.386-0.504,8.348-3.707,9.76-7.89"/>
			<g>
				<g>
					<g>
						<path style="fill:#B77153;" d="M387.072,153.266c0.208-4.869,0.471-9.277,0.471-9.277s10.884-1.373,11.353-12.482
							c0.469-11.11-0.636-36.69-0.636-36.69l-20.033-9.62l-21.553,17.363l3.38,51.021c0.487,7.351,6.766,12.962,14.126,12.621l0,0
							C381.178,165.879,386.773,160.265,387.072,153.266z"/>
					</g>
					<g>
						<g>
							<g>
								<path style="fill:#263238;" d="M397.726,113.845c-0.175,0.187-1.212-0.688-2.704-0.744c-1.49-0.079-2.598,0.699-2.756,0.497
									c-0.078-0.09,0.102-0.432,0.585-0.784c0.475-0.351,1.281-0.679,2.21-0.637c0.929,0.043,1.705,0.441,2.148,0.834
									C397.662,113.405,397.812,113.761,397.726,113.845z"/>
							</g>
						</g>
					</g>
					<g>
						<g>
							<g>
								<path style="fill:#263238;" d="M381.209,113.845c-0.175,0.187-1.214-0.688-2.704-0.744c-1.49-0.079-2.598,0.699-2.756,0.497
									c-0.078-0.09,0.101-0.432,0.585-0.784c0.475-0.351,1.281-0.679,2.21-0.637c0.929,0.043,1.705,0.441,2.149,0.834
									C381.144,113.405,381.295,113.761,381.209,113.845z"/>
							</g>
						</g>
					</g>
					<g>
						<g>
							<path style="fill:#263238;" d="M386.809,125.047c-0.005-0.091,0.925-0.225,2.431-0.37c0.381-0.027,0.743-0.093,0.812-0.369
								c0.094-0.291-0.059-0.737-0.235-1.219c-0.343-1.002-0.702-2.051-1.078-3.151c-1.495-4.485-2.57-8.166-2.403-8.225
								c0.168-0.059,1.516,3.528,3.011,8.013c0.359,1.105,0.703,2.159,1.03,3.168c0.137,0.469,0.377,1.005,0.173,1.609
								c-0.107,0.3-0.39,0.51-0.636,0.571c-0.245,0.07-0.46,0.066-0.648,0.07C387.751,125.168,386.813,125.138,386.809,125.047z"/>
						</g>
					</g>
					<g>
						<path style="fill:#995037;" d="M387.543,143.989c0,0-7.28,0.209-14.412-4.718c0,0,3.387,8.092,14.223,7.445L387.543,143.989z"
							/>
					</g>
				</g>
			</g>
			<path style="fill:#263238;" d="M372.082,85.82c-3.552,4.913-3.466,12.151,0.202,16.978c1.615,2.126,4.058,3.854,6.727,3.757
				c2.668-0.097,5.251-2.626,4.685-5.236c-1.042,3.265,1.736,7.139,5.163,7.2c3.427,0.061,6.341-3.712,5.416-7.012
				c0.274,1.186,0.562,2.401,1.245,3.408c0.683,1.007,1.861,1.773,3.067,1.614c1.675-0.221,2.648-2.019,3.032-3.664
				c1.146-4.919-0.667-10.32-4.28-13.849c-3.613-3.529-8.84-5.211-13.879-4.868c-5.039,0.343-9.854,2.611-13.632,5.963"/>
			<path style="fill:#263238;" d="M373.493,89.737c1.298,3.173,2.272,6.539,2.237,9.967c-0.035,3.428-1.169,6.94-3.601,9.356
				c-2.432,2.416-6.261,3.526-9.449,2.268c0.764,2.999,0.489,6.399-1.376,8.869c-1.865,2.47-5.523,3.652-8.237,2.165
				c-2.454-1.345-3.515-4.321-3.853-7.099c-0.817-6.72,1.561-13.758,6.286-18.606c4.725-4.848,11.699-7.406,18.438-6.762"/>
			<g>
				<g>
					<path style="fill:#B77153;" d="M359.754,116.206c-1.481-0.914-3.504-0.162-4.68,1.121c-1.85,2.019-2.172,5.281-0.753,7.623
						c1.419,2.342,4.461,3.565,7.106,2.859"/>
					<g>
						<path style="fill:#995037;" d="M359.412,124.481c-0.001,0.063-0.494,0.134-1.26-0.083c-0.73-0.204-1.855-0.794-2.284-2.042
							c-0.211-0.604-0.172-1.265,0.06-1.774c0.227-0.512,0.591-0.866,0.923-1.093c0.684-0.452,1.21-0.435,1.214-0.378
							c0.025,0.084-0.444,0.206-0.983,0.676c-0.543,0.442-1.078,1.384-0.709,2.398c0.339,1.008,1.253,1.578,1.906,1.857
							C358.951,124.331,359.421,124.398,359.412,124.481z"/>
					</g>
				</g>
			</g>
			<g>
				<path style="fill:#263238;" d="M382.126,109.206c-0.139,0.432-1.763,0.274-3.696,0.359c-1.934,0.059-3.542,0.338-3.713-0.083
					c-0.18-0.389,1.399-1.437,3.653-1.515C380.623,107.878,382.276,108.804,382.126,109.206z"/>
			</g>
			<g>
				<path style="fill:none;stroke:#4E585D;stroke-miterlimit:10;" d="M377.773,108.414"/>
			</g>
			<g>
				<path style="fill:#263238;" d="M397.689,108.898c-0.169,0.153-0.503,0.053-0.891-0.045c-0.401-0.098-0.774-0.147-1.358-0.086
					c-0.582,0.057-1.22,0.16-1.707,0.151c-0.489-0.005-0.83-0.11-0.892-0.322c-0.062-0.212,0.156-0.486,0.571-0.762
					c0.418-0.267,1.031-0.569,1.885-0.659c0.862-0.121,1.795,0.286,2.147,0.751C397.825,108.381,397.845,108.76,397.689,108.898z"/>
			</g>
			<path style="fill:#995037;" d="M384.222,127.892c0.839-0.501,1.889-0.733,2.807-0.398c0.918,0.336,1.61,1.339,1.394,2.292
				c-0.118,0.52-0.476,0.959-0.901,1.279c-0.655,0.492-1.513,0.736-2.315,0.567c-0.802-0.169-1.517-0.781-1.722-1.574
				c-0.205-0.793,0.167-1.722,0.903-2.082"/>
			<g>
				<path style="fill:#263238;" d="M389.676,129.076c0.026,0.059-0.355,0.315-1.071,0.469c-0.706,0.156-1.767,0.162-2.816-0.275
					c-1.05-0.438-1.793-1.195-2.179-1.806c-0.395-0.617-0.482-1.067-0.421-1.09c0.075-0.033,0.282,0.35,0.723,0.865
					c0.435,0.514,1.143,1.148,2.082,1.539c0.939,0.391,1.887,0.447,2.559,0.394C389.229,129.122,389.647,128.999,389.676,129.076z"
					/>
			</g>
			<g>
				<path style="fill:#E8505B;" d="M367.126,134.375c-0.064,0.004-0.024-0.773-0.372-2.091c-0.344-1.293-1.219-3.189-3.166-4.649
					c-0.965-0.713-2.177-1.318-3.571-1.557c-1.385-0.231-2.946-0.182-4.428,0.387c-0.746,0.261-1.466,0.655-2.126,1.152
					c-0.669,0.487-1.275,1.09-1.775,1.789c-1.033,1.377-1.614,3.145-1.632,4.968c0.017,1.823,0.598,3.592,1.631,4.97
					c0.5,0.699,1.106,1.303,1.775,1.79c0.661,0.497,1.38,0.891,2.127,1.152c1.483,0.569,3.044,0.618,4.429,0.387
					c1.395-0.24,2.607-0.844,3.571-1.557c1.947-1.461,2.822-3.356,3.166-4.649C367.103,135.148,367.063,134.371,367.126,134.375
					c0.018,0,0.027,0.19,0.026,0.556c0.006,0.364-0.042,0.907-0.196,1.586c-0.29,1.339-1.135,3.333-3.138,4.898
					c-0.992,0.765-2.254,1.42-3.719,1.692c-1.454,0.263-3.102,0.229-4.677-0.36c-0.793-0.271-1.558-0.683-2.262-1.205
					c-0.712-0.512-1.359-1.15-1.893-1.89c-1.102-1.458-1.727-3.341-1.743-5.279c0.017-1.937,0.641-3.819,1.744-5.277
					c0.534-0.74,1.181-1.377,1.893-1.889c0.704-0.522,1.469-0.933,2.262-1.204c1.576-0.588,3.223-0.623,4.677-0.36
					c1.464,0.272,2.726,0.927,3.719,1.692c2.003,1.565,2.848,3.559,3.139,4.898c0.154,0.679,0.202,1.221,0.196,1.586
					C367.153,134.185,367.145,134.375,367.126,134.375z"/>
			</g>
			<g>
				<path style="fill:#455A64;" d="M397.683,84.663c0.004-0.013,0.098,0.01,0.277,0.068c0.172,0.073,0.433,0.194,0.698,0.449
					c0.531,0.479,1.127,1.538,0.894,2.915c-0.219,1.389-1.622,2.718-3.461,3.066c-1.87,0.392-3.97-0.311-5.86-1.401l-2.065-1.191
					l2.266,0.744c0.776,0.255,1.336,0.976,1.528,1.754c0.206,0.779,0.118,1.654-0.316,2.392c-0.449,0.74-1.213,1.224-2.034,1.441
					c-0.825,0.217-1.707,0.185-2.534-0.056c-2.032-0.631-3.345-2.284-4.355-3.761l-1.447-2.118l1.84,1.785
					c1.05,1.019,1.284,2.538,0.99,3.78c-0.284,1.267-1.165,2.326-2.225,2.816c-2.142,1.024-4.428,0.383-5.69-0.694
					c-1.316-1.077-1.877-2.36-2.154-3.209c-0.141-0.432-0.203-0.779-0.239-1.011c-0.029-0.235-0.036-0.358-0.02-0.36
					c0.043-0.008,0.107,0.482,0.428,1.312c0.322,0.812,0.918,2.026,2.19,3.007c1.212,0.983,3.356,1.513,5.284,0.555
					c0.953-0.462,1.7-1.389,1.95-2.525c0.254-1.117,0.02-2.448-0.869-3.295l0.392-0.333c0.992,1.447,2.265,2.986,4.075,3.54
					c1.459,0.45,3.226,0.069,3.972-1.142c0.728-1.18,0.293-3.006-0.922-3.41l0.201-0.447c1.84,1.085,3.815,1.755,5.538,1.424
					c1.713-0.294,3.013-1.484,3.246-2.719c0.255-1.247-0.248-2.263-0.713-2.744C398.069,84.783,397.659,84.709,397.683,84.663z"/>
			</g>
			<g>
				<path style="fill:#455A64;" d="M371.042,102.527c0.009,0.007-0.036,0.073-0.132,0.194c-0.094,0.123-0.249,0.292-0.468,0.498
					c-0.438,0.405-1.159,0.954-2.233,1.328c-1.057,0.372-2.51,0.564-4.044,0.068c-1.513-0.478-3.092-1.629-3.97-3.434l0.419-0.059
					c-0.359,2.318-2.256,4.664-5.006,5.296c-2.717,0.622-6.001-0.823-7.276-3.675c-1.126-2.56-0.39-5.583,1.402-7.308l0.347,0.379
					c-1.221,1.025-2.758,1.513-4.205,1.522c-1.453,0.026-2.836-0.378-3.949-1.076c-1.111-0.7-1.939-1.711-2.363-2.777
					c-0.437-1.065-0.558-2.141-0.495-3.092c0.136-1.924,0.966-3.301,1.643-4.065c0.697-0.773,1.22-1.012,1.22-1.012
					c0.033,0.041-0.451,0.339-1.086,1.125c-0.617,0.777-1.367,2.129-1.452,3.971c-0.039,0.91,0.099,1.93,0.527,2.921
					c0.417,0.993,1.196,1.912,2.239,2.554c1.046,0.638,2.347,1.005,3.706,0.967c1.355-0.019,2.771-0.489,3.879-1.427l0.347,0.379
					c-1.631,1.575-2.306,4.394-1.273,6.723c1.148,2.597,4.203,3.957,6.679,3.394c2.523-0.558,4.326-2.734,4.678-4.87l0.116-0.704
					l0.303,0.645c0.793,1.686,2.262,2.802,3.682,3.281c1.436,0.497,2.82,0.354,3.851,0.031c1.046-0.324,1.77-0.822,2.226-1.187
					C370.81,102.746,371.019,102.506,371.042,102.527z"/>
			</g>
			<g>
				<path style="fill:#455A64;" d="M351.206,120.314c0.012,0.017-0.263,0.251-0.865,0.515c-0.598,0.256-1.553,0.532-2.767,0.432
					c-1.193-0.094-2.691-0.605-3.817-1.863c-1.114-1.222-1.848-3.128-1.503-5.129l0.457,0.203c-0.927,1.219-2.201,2.339-3.756,3.066
					c-1.164,0.541-2.424,0.819-3.645,0.777c-1.217-0.045-2.376-0.373-3.35-0.92c-1.995-1.059-3.112-3.048-3.185-4.732
					c-0.128-1.699,0.478-3.017,1.029-3.752c0.29-0.367,0.553-0.617,0.747-0.764c0.198-0.144,0.305-0.211,0.316-0.197
					c0.035,0.041-0.391,0.336-0.893,1.079c-0.477,0.74-0.99,2.01-0.823,3.599c0.121,1.575,1.174,3.364,3.045,4.335
					c1.829,1.016,4.342,1.152,6.536,0.091c1.464-0.684,2.681-1.742,3.572-2.894l0.646-0.836l-0.189,1.039
					c-0.33,1.811,0.318,3.591,1.328,4.742c1.015,1.181,2.388,1.698,3.519,1.832c1.147,0.138,2.073-0.074,2.672-0.272
					C350.882,120.461,351.186,120.28,351.206,120.314z"/>
			</g>
			<g>
				<path style="fill:#455A64;" d="M407.837,98.65c0.055-0.015,0.302,0.68,0.221,1.848c-0.071,1.149-0.571,2.79-1.824,4.105
					c-1.258,1.312-2.875,1.884-4.02,2.006c-1.163,0.133-1.868-0.083-1.855-0.138c0.008-0.089,0.712-0.014,1.795-0.234
					c1.071-0.209,2.54-0.798,3.695-2.003c1.151-1.207,1.674-2.701,1.835-3.78C407.855,99.363,407.749,98.662,407.837,98.65z"/>
			</g>
			<g>
				<path style="fill:#455A64;" d="M413.955,109.12c0.026-0.009,0.16,0.246,0.251,0.758c0.085,0.506,0.121,1.291-0.207,2.193
					c-0.312,0.871-1.09,1.943-2.421,2.225c-0.64,0.139-1.355,0.095-2.025-0.174c-0.67-0.255-1.296-0.799-1.592-1.545l0.503-0.169
					c0.077,0.307,0.139,0.643,0.125,0.982c-0.046,1.669-1.174,3.068-2.507,3.563c-0.673,0.246-1.385,0.245-1.989,0.082
					c-0.606-0.17-1.11-0.481-1.503-0.827c-0.795-0.699-1.121-1.533-1.211-2.097c-0.088-0.575,0.005-0.89,0.027-0.886
					c0.049,0.001,0.031,0.317,0.175,0.84c0.144,0.516,0.498,1.256,1.251,1.855c0.72,0.601,1.915,1.031,3.075,0.574
					c1.132-0.439,2.117-1.696,2.148-3.113c0.014-0.288-0.041-0.568-0.102-0.825l0.503-0.169c0.476,1.207,1.951,1.667,3.025,1.441
					c1.123-0.204,1.85-1.104,2.18-1.891c0.343-0.809,0.369-1.547,0.347-2.038C413.982,109.405,413.915,109.132,413.955,109.12z"/>
			</g>
			<g>
				<path style="fill:#263238;" d="M383.459,123.979c0.067,0.01,0.111,0.228,0.023,0.566c-0.085,0.336-0.332,0.776-0.745,1.119
					c-0.414,0.342-0.892,0.502-1.238,0.524c-0.349,0.024-0.555-0.06-0.552-0.128c0.004-0.151,0.771-0.224,1.451-0.806
					C383.095,124.695,383.31,123.954,383.459,123.979z"/>
			</g>
		</g>
	</g>
</g>
<g id="Plant">
	<g>
		<g>
			<path style="fill:#E8505B;" d="M621.81,410.788c-2.497,3.566-7.349,2.385-9.598,0.209c-2.25-2.176-3.201-5.331-4.066-8.339
				c-1.978-6.873-3.971-14.083-2.501-21.082c0.44-2.092,1.222-4.179,2.692-5.731c1.47-1.552,3.731-2.476,5.799-1.93
				c2.446,0.646,3.967,3.042,5.066,5.322c3.23,6.7,4.941,14.128,4.966,21.566C624.178,404.277,623.769,407.921,621.81,410.788"/>
		</g>
		<g style="opacity:0.2;">
			<path d="M621.81,410.788c-2.497,3.566-7.349,2.385-9.598,0.209c-2.25-2.176-3.201-5.331-4.066-8.339
				c-1.978-6.873-3.971-14.083-2.501-21.082c0.44-2.092,1.222-4.179,2.692-5.731c1.47-1.552,3.731-2.476,5.799-1.93
				c2.446,0.646,3.967,3.042,5.066,5.322c3.23,6.7,4.941,14.128,4.966,21.566C624.178,404.277,623.769,407.921,621.81,410.788"/>
		</g>
		<g>
			<path style="fill:#E8505B;" d="M612.456,428.845c-4.083-2.107-8.89-2.38-13.423-1.631c-2.435,0.403-4.974,1.131-6.631,2.96
				c-1.657,1.829-1.971,5.048-0.068,6.62c1.133,0.935,2.712,1.078,4.181,1.061c3.549-0.041,7.485-0.666,10.32,1.469
				c1.617,1.218,2.694,3.243,4.628,3.842c1.892,0.586,4.026-0.53,5.03-2.238c1.003-1.707,1.037-3.842,0.569-5.766
				C617.061,435.161,616.568,430.967,612.456,428.845z"/>
		</g>
		<g>
			<path style="fill:#E8505B;" d="M628.665,415.905c-2.711-3.217-3.225-7.909-2.019-11.939c1.206-4.03,3.931-7.458,7.071-10.258
				c3.682-3.282,8.01-5.835,12.663-7.471c1.831-0.644,3.763-1.152,5.695-0.968c1.932,0.185,3.878,1.172,4.779,2.892
				c1.333,2.542,0.055,5.624-1.327,8.139c-2.435,4.431-5.218,8.67-8.317,12.665c-2.493,3.214-5.348,6.384-9.148,7.837
				c-3.799,1.452-7.746,1.281-9.76-1.353"/>
		</g>
		<g>
			<g>
				<path style="fill:#263238;" d="M621.979,464.575c-0.047,0.003-0.123-0.575-0.226-1.62c-0.115-1.179-0.259-2.66-0.43-4.421
					c-0.206-1.861-0.478-4.075-0.995-6.486c-0.515-2.405-1.322-5.012-2.357-7.655c-1.073-2.628-2.38-5.016-3.909-6.926
					c-1.518-1.919-3.283-3.307-4.942-4.108c-1.654-0.817-3.137-1.149-4.162-1.296c-1.034-0.106-1.613-0.188-1.613-0.233
					c0-0.046,0.579-0.054,1.642-0.025c1.052,0.07,2.597,0.337,4.34,1.129c1.748,0.775,3.621,2.186,5.213,4.144
					c1.605,1.95,2.96,4.391,4.052,7.066c1.054,2.69,1.848,5.323,2.341,7.78c0.491,2.453,0.715,4.692,0.862,6.567
					c0.14,1.878,0.193,3.398,0.219,4.449C622.036,463.99,622.024,464.572,621.979,464.575z"/>
			</g>
		</g>
		<g>
			<g>
				<path style="fill:#263238;" d="M621.674,461.173c-0.023-0.001-0.037-0.26-0.043-0.752c0.001-0.565,0.003-1.276,0.006-2.15
					c0.005-1.866,0.004-4.566-0.096-7.9c-0.165-6.668-0.739-15.873-1.848-25.99c-1.117-10.121-2.597-19.224-3.947-25.755
					c-0.319-1.637-0.64-3.111-0.943-4.4c-0.288-1.293-0.535-2.408-0.772-3.31c-0.204-0.849-0.37-1.541-0.502-2.09
					c-0.108-0.48-0.154-0.735-0.132-0.742c0.022-0.006,0.112,0.236,0.261,0.705c0.164,0.541,0.37,1.223,0.624,2.06
					c0.277,0.894,0.561,2.001,0.884,3.289c0.338,1.285,0.692,2.755,1.041,4.389c1.472,6.523,3.03,15.639,4.149,25.781
					c1.111,10.139,1.612,19.37,1.656,26.055c0.04,3.342-0.031,6.048-0.117,7.915c-0.053,0.873-0.097,1.584-0.131,2.149
					C621.728,460.917,621.697,461.174,621.674,461.173z"/>
			</g>
		</g>
		<g>
			<g>
				<path style="fill:#263238;" d="M621.629,443.368c-0.046-0.002-0.038-0.8,0.016-2.246c0.083-1.443,0.281-3.529,0.688-6.084
					c0.431-2.549,1.033-5.576,1.979-8.865c0.9-3.301,2.136-6.865,3.707-10.49c3.075-7.294,7.252-13.257,10.886-16.951
					c0.852-0.98,1.802-1.688,2.561-2.381c0.393-0.332,0.74-0.664,1.094-0.926c0.356-0.245,0.687-0.473,0.994-0.685
					c1.196-0.818,1.866-1.249,1.891-1.21c0.107,0.146-2.679,1.785-6.197,5.529c-3.504,3.735-7.565,9.657-10.615,16.89
					c-1.558,3.594-2.802,7.124-3.728,10.393c-0.972,3.257-1.618,6.253-2.106,8.777c-0.464,2.529-0.732,4.594-0.894,6.024
					C621.771,442.576,621.675,443.37,621.629,443.368z"/>
			</g>
		</g>
	</g>
</g>
<g id="Speech_Bubble">
	<g>
		<g>
			<g>
				<path style="fill:#263238;" d="M270.399,41.62c0,0.014-0.236,0.044-0.695,0.086c-0.496,0.041-1.171,0.099-2.038,0.171
					c-0.9,0.026-1.992,0.234-3.281,0.476c-0.641,0.137-1.35,0.197-2.073,0.42c-0.726,0.211-1.498,0.434-2.314,0.67
					c-3.221,1.057-7.096,2.722-10.984,5.605c-3.878,2.861-7.743,6.934-10.732,12.222c-1.573,2.601-2.702,5.597-3.711,8.743
					c-0.813,3.201-1.527,6.599-1.543,10.172c-0.139,1.783,0.062,3.591,0.158,5.429c0.059,0.919,0.267,1.828,0.395,2.753
					c0.137,0.925,0.283,1.856,0.557,2.768c0.801,3.715,2.359,7.348,4.318,10.825c3.916,6.979,10.432,12.956,18.434,16.372
					c4.003,1.713,8.418,2.61,12.899,2.743c4.486,0.233,9.07-0.539,13.408-2.086l1.312-0.498l0.173-0.066l0.158,0.078
					c6.483,3.199,12.841,6.336,19.002,9.376l-0.556,0.486c-2.089-6.238-4.113-12.287-6.056-18.09l-0.075-0.224l0.165-0.169
					c4.707-4.822,7.959-10.653,9.731-16.604c1.776-5.97,2.023-12.03,1.239-17.573c-0.782-5.555-2.659-10.593-5.132-14.823
					c-2.473-4.242-5.525-7.676-8.649-10.348c-3.16-2.653-6.426-4.438-9.348-5.8c-2.992-1.212-5.656-1.98-7.868-2.381
					c-1.105-0.175-2.088-0.331-2.944-0.467c-0.849-0.05-1.572-0.092-2.169-0.127c-0.558-0.037-0.997-0.065-1.329-0.087
					C270.551,41.649,270.399,41.632,270.399,41.62c0-0.011,0.152-0.016,0.452-0.015c0.333,0.006,0.773,0.013,1.334,0.023
					c0.602,0.017,1.329,0.038,2.184,0.064c0.865,0.119,1.856,0.255,2.971,0.408c2.234,0.364,4.931,1.1,7.969,2.29
					c2.967,1.34,6.288,3.115,9.509,5.775c3.186,2.678,6.304,6.138,8.838,10.425c2.534,4.276,4.467,9.382,5.286,15.022
					c0.82,5.627,0.593,11.789-1.196,17.871c-1.785,6.063-5.082,12.014-9.873,16.939l0.09-0.393c1.951,5.8,3.985,11.845,6.082,18.081
					l0.307,0.912l-0.863-0.425c-6.163-3.037-12.522-6.17-19.007-9.365l0.331,0.012l-1.34,0.51
					c-4.433,1.581-9.122,2.368-13.707,2.129c-4.579-0.139-9.092-1.063-13.18-2.816c-8.174-3.499-14.803-9.613-18.775-16.731
					c-1.988-3.547-3.56-7.251-4.365-11.034c-0.274-0.928-0.42-1.875-0.556-2.817c-0.127-0.941-0.335-1.867-0.392-2.801
					c-0.092-1.869-0.287-3.708-0.14-5.518c0.032-3.63,0.77-7.081,1.614-10.326c1.04-3.191,2.203-6.223,3.814-8.853
					c3.064-5.346,7.011-9.443,10.962-12.303c3.959-2.883,7.895-4.521,11.159-5.541c0.826-0.225,1.608-0.439,2.343-0.639
					c0.73-0.212,1.448-0.262,2.094-0.387c1.302-0.22,2.403-0.403,3.31-0.402c0.871-0.039,1.552-0.069,2.049-0.091
					C270.162,41.607,270.399,41.606,270.399,41.62z"/>
			</g>
		</g>
		<g>
			<g>
				<path style="fill:#E8505B;" d="M279.339,76.498l-2.768,0.032l-6.137-8.351l-0.063-5.526c0,0-4.282-0.215-3.696,7.016
					c0.586,7.23,0.02,5.394,0.02,5.394s-9.085,0.138-9.831,0.936c-0.543,0.58-0.688,9.608-0.728,14.503
					c-0.02,2.465,1.518,4.739,3.816,5.295c0.327,0.079,0.656,0.124,0.979,0.12c2.266-0.026,13.824-2,13.824-2l4.782-0.054
					L279.339,76.498z"/>
			</g>
			<g>
				<polygon style="fill:#E8505B;" points="287.246,74.891 285.759,93.845 281.018,93.899 280.807,75.346 				"/>
			</g>
		</g>
	</g>
</g>
</svg>
