<?xml version="1.0" encoding="utf-8"?>
<!-- Generator: Adobe Illustrator 27.5.0, SVG Export Plug-In . SVG Version: 6.00 Build 0)  -->
<svg version="1.1" xmlns="http://www.w3.org/2000/svg" xmlns:xlink="http://www.w3.org/1999/xlink" x="0px" y="0px"
	 viewBox="0 0 500 500" style="enable-background:new 0 0 500 500;" xml:space="preserve">
<g id="BACKGROUND">
	<rect style="fill:#FFFFFF;" width="500" height="500"/>
</g>
<g id="OBJECTS">
	<g>
		<g>
			<path style="fill:#E6F8FF;" d="M472.117,392.945c0-6.328-95.452-11.459-213.198-11.459s-213.198,5.13-213.198,11.459
				c0,6.328,95.452,11.458,213.198,11.458S472.117,399.273,472.117,392.945z"/>
			<g>
				<g>
					<path style="fill:#CAEDFF;" d="M72.234,387.499c-24.848-0.116-44.998-20.544-44.335-45.383
						c0.36-13.502,5.41-26.597,20.753-33.733c40.421-18.8-15.98-141.004,55.462-153.224s68.622-105.283,152.284-35.721
						c83.662,69.562,98.703-24.441,153.224,24.441s-35.721,110.923,31.961,142.884c44.63,21.075,29.993,58.908,14.845,82.236
						c-8.22,12.658-22.374,20.197-37.467,20.126L72.234,387.499z"/>
					<path style="opacity:0.44;fill:#BAE6F7;" d="M418.96,389.123c15.093,0.071,29.247-7.468,37.468-20.126
						c15.148-23.327,29.785-61.16-14.845-82.236c-67.682-31.961,22.561-94.003-31.961-142.884s-69.562,45.121-153.224-24.441
						c-20.585-17.115-35.932-24.381-48.44-25.433c4.231,2.864,8.219,6.695,11.816,11.731c30.395,42.553,48.632,73.623,112.123,68.22
						c63.491-5.404-28.368,105.369,21.614,118.202c33.018,8.477,28.597,59.393,4.663,96.682L418.96,389.123z"/>
				</g>
				<g>
					<g>
						<path style="fill:#7BC7FF;" d="M198.162,173.821c0.045-0.06-7.556-0.548-14.452-3.959c-6.871-3.183-13.038-9.29-9.551-15.318
							c5.154-8.26-9.502-15.257-4.519-19.853c5.073-4.073,6.137-0.7,4.184-9.81c-1.609-9.299,4.79-11.532,8.39-19.851
							c4.113-8.368,13.566-2.107,11.227,8.814c-1.839,11.269,2.509-0.373,5.708,4.709c2.726,4.196-8.01,22.28-3.26,20.643
							c4.39-1.976,8.172,0.777,7.586,5.828C201.766,156.659,197.946,173.59,198.162,173.821z"/>
						<path style="fill:#379CF7;" d="M201.659,178.577c-0.05,0.003-0.092-0.017-0.129-0.06c-5.897-6.891-12.615-17.5-15.927-29.826
							c-0.009-0.032-0.018-0.064-0.026-0.096c-0.027-0.016-0.054-0.033-0.081-0.049c-3.075-1.852-5.859-4.423-8.452-7.103
							c-0.856-0.883-1.703-1.786-2.551-2.694c-0.049-0.052-0.057-0.095-0.028-0.152c0.04-0.081,0.138-0.142,0.221-0.105
							c0.02,0.009,0.041,0.024,0.06,0.044c0.828,0.887,1.655,1.771,2.491,2.635c2.39,2.473,4.946,4.859,7.748,6.666
							c0.155,0.1,0.311,0.2,0.467,0.299c-0.049-0.188-0.098-0.376-0.147-0.564c-1.327-5.189-2.128-10.671-2.297-16.639
							c-0.001-0.053-0.003-0.105-0.004-0.158c0,0-0.133-0.061-0.133-0.061c-0.029-0.014-0.043-0.027-0.057-0.048
							c-2.196-3.329-3.965-7.116-5.177-11.184c-0.021-0.072-0.011-0.123,0.034-0.168c0.057-0.056,0.147-0.072,0.202-0.036
							c0.027,0.018,0.047,0.048,0.06,0.093c1.109,3.726,2.693,7.223,4.647,10.339c0.136,0.217,0.273,0.433,0.41,0.649
							c-0.005-0.263-0.009-0.526-0.011-0.789c-0.057-5.644,0.451-11.515,1.725-17.795c0.015-0.075,0.047-0.089,0.059-0.094
							c0.045-0.021,0.112-0.008,0.163,0.029c0.061,0.044,0.083,0.107,0.067,0.187c-1.73,8.561-2.053,16.493-1.392,23.877
							c0.014,0.155,0.028,0.311,0.043,0.466c0.106-0.102,0.213-0.204,0.32-0.305c3.6-3.425,6.661-7.166,9.241-11.176
							c0.03-0.047,0.059-0.068,0.12-0.036c0.052,0.027,0.095,0.081,0.11,0.138c0.013,0.049,0.005,0.095-0.023,0.14
							c-2.667,4.157-5.85,8.024-9.616,11.554c-0.035,0.029-0.071,0.058-0.106,0.087c0.005,0.045,0.009,0.091,0.014,0.136
							c0.431,4.14,1.146,7.923,2.114,11.53c0.006,0.021,0.012,0.043,0.017,0.064c0.015,0.015,0.03,0.031,0.045,0.046
							c0.039,0.04,0.051,0.09,0.037,0.15c-0.005,0.021-0.01,0.043-0.016,0.064c0.006,0.021,0.012,0.043,0.018,0.064
							c0.876,3.178,2.011,6.444,3.524,9.914c0.083,0.189,0.166,0.378,0.25,0.567c0.053-0.198,0.106-0.395,0.16-0.592
							c1.523-5.571,3.792-10.745,6.601-15.275c0.04-0.065,0.099-0.088,0.175-0.066c0.055,0.016,0.102,0.054,0.119,0.095
							c0.008,0.019,0.014,0.051-0.018,0.102c-2.955,4.769-5.301,10.229-6.814,16.098c-0.007,0.028-0.015,0.056-0.022,0.085
							c0.012,0.027,0.024,0.054,0.036,0.081c2.753,6.005,6.419,12.152,11.87,18.648c0.05,0.059,0.036,0.094,0.029,0.111
							C201.802,178.523,201.729,178.572,201.659,178.577C201.659,178.577,201.659,178.577,201.659,178.577z"/>
					</g>
					<g>
						<path style="fill:#7BC7FF;" d="M180.32,202.281c-0.067,0.039,0.744-8.235-1.453-16.204
							c-1.976-7.906-6.959-15.509-13.507-12.686c-9.036,4.272-13.455-12.624-18.842-7.966c-4.886,4.837-1.735,6.509-10.402,2.985
							c-8.912-3.184-12.206,3.37-21.035,5.956c-8.966,3.133-4.389,14.303,6.797,13.482c11.444-0.228-0.796,2.648,3.681,6.89
							c3.681,3.594,23.37-5.169,20.945-0.3c-2.698,4.426-0.622,8.935,4.467,9.089C162.754,203.496,180.129,202.012,180.32,202.281z"
							/>
						<path style="fill:#379CF7;" d="M184.423,206.794c0.012-0.053-0.001-0.102-0.038-0.149
							c-5.804-7.434-15.141-16.331-26.753-21.823c-0.03-0.014-0.06-0.029-0.09-0.043c-0.012-0.032-0.023-0.063-0.035-0.095
							c-1.307-3.605-3.372-7.008-5.579-10.222c-0.727-1.061-1.475-2.115-2.227-3.171c-0.043-0.061-0.084-0.076-0.146-0.054
							c-0.087,0.031-0.164,0.127-0.141,0.222c0.006,0.023,0.017,0.047,0.034,0.071c0.736,1.031,1.467,2.061,2.179,3.097
							c2.036,2.962,3.959,6.091,5.267,9.395c0.073,0.183,0.145,0.366,0.216,0.55c-0.177-0.083-0.355-0.165-0.533-0.246
							c-4.9-2.239-10.179-3.957-16.045-5.069c-0.052-0.01-0.104-0.02-0.155-0.029c0,0-0.037-0.153-0.037-0.153
							c-0.009-0.033-0.019-0.051-0.038-0.069c-2.915-2.887-6.355-5.385-10.167-7.325c-0.067-0.034-0.12-0.031-0.171,0.01
							c-0.065,0.052-0.096,0.148-0.07,0.212c0.013,0.032,0.039,0.058,0.081,0.079c3.492,1.776,6.677,4.03,9.422,6.622
							c0.191,0.181,0.382,0.362,0.571,0.544c-0.259-0.046-0.518-0.091-0.777-0.135c-5.565-0.941-11.451-1.307-17.871-0.912
							c-0.076,0.005-0.096,0.037-0.103,0.049c-0.028,0.045-0.027,0.12,0.001,0.181c0.034,0.072,0.092,0.106,0.173,0.101
							c8.751-0.533,16.641,0.355,23.822,2.218c0.151,0.039,0.302,0.079,0.453,0.119c-0.119,0.099-0.237,0.198-0.356,0.297
							c-3.996,3.349-8.212,6.068-12.611,8.226c-0.051,0.025-0.077,0.054-0.056,0.124c0.018,0.06,0.064,0.115,0.118,0.141
							c0.046,0.022,0.092,0.021,0.142-0.004c4.56-2.229,8.921-5.059,13.048-8.571c0.035-0.034,0.069-0.067,0.104-0.101
							c0.044,0.012,0.088,0.024,0.132,0.036c4.016,1.109,7.631,2.47,11.029,4.076c0.02,0.01,0.04,0.019,0.06,0.029
							c0.012,0.019,0.025,0.037,0.037,0.056c0.033,0.048,0.08,0.069,0.142,0.063c0.022-0.002,0.044-0.005,0.066-0.007
							c0.02,0.01,0.04,0.02,0.06,0.029c2.991,1.439,6.023,3.173,9.193,5.345c0.173,0.119,0.346,0.238,0.518,0.357
							c-0.204,0.026-0.408,0.053-0.612,0.08c-5.762,0.774-11.259,2.417-16.211,4.74c-0.072,0.033-0.103,0.093-0.095,0.179
							c0.006,0.061,0.036,0.119,0.074,0.143c0.017,0.011,0.048,0.023,0.104-0.003c5.213-2.444,11.005-4.124,17.061-4.842
							c0.029-0.004,0.058-0.007,0.087-0.01c0.024,0.017,0.049,0.035,0.073,0.052c5.464,3.905,10.913,8.815,16.402,15.706
							c0.05,0.063,0.087,0.053,0.104,0.049C184.345,206.94,184.407,206.869,184.423,206.794
							C184.423,206.794,184.423,206.794,184.423,206.794z"/>
					</g>
					<g>
						<path style="fill:#379CF7;" d="M175.184,186.017c-0.092-0.006,5.498-7.502,7.793-16.665
							c2.489-8.958,1.683-19.583-6.728-21.116c-11.824-1.751-6.71-21.022-14.971-20.018c-7.844,1.504-5.536,5.182-12.503-3.89
							c-7.416-8.902-14.595-4.693-25.238-7.944c-11.098-2.81-12.762,11.01-0.688,17.51c12.001,7.244-2.345,2.05-0.137,9.084
							c1.756,5.887,27.208,10.232,21.898,13.372c-5.339,2.533-5.774,8.26-0.584,11.73
							C156.267,175.736,175.14,185.631,175.184,186.017z"/>
						<path style="fill:#2481C6;" d="M176.85,193.07c0.043-0.044,0.058-0.1,0.046-0.169c-1.754-10.997-6.331-25.717-15.223-38.62
							c-0.023-0.034-0.046-0.067-0.069-0.101c0.006-0.038,0.012-0.077,0.018-0.115c0.714-4.349,0.524-8.997,0.081-13.554
							c-0.145-1.503-0.316-3.013-0.49-4.528c-0.01-0.087-0.044-0.128-0.12-0.147c-0.107-0.027-0.243,0.017-0.274,0.123
							c-0.008,0.026-0.01,0.057-0.006,0.091c0.171,1.48,0.339,2.956,0.482,4.425c0.411,4.201,0.61,8.491,0.071,12.548
							c-0.03,0.225-0.06,0.45-0.091,0.674c-0.136-0.196-0.274-0.391-0.411-0.586c-3.797-5.368-8.287-10.478-13.733-15.383
							c-0.048-0.043-0.096-0.087-0.144-0.13c0,0,0.049-0.173,0.05-0.173c0.01-0.038,0.009-0.062,0.001-0.091
							c-1.366-4.702-3.501-9.368-6.341-13.737c-0.05-0.077-0.107-0.108-0.184-0.102c-0.097,0.009-0.184,0.081-0.194,0.16
							c-0.005,0.039,0.007,0.081,0.039,0.129c2.602,4,4.613,8.265,5.972,12.57c0.095,0.3,0.188,0.6,0.28,0.9
							c-0.242-0.213-0.485-0.426-0.729-0.638c-5.233-4.543-11.128-8.738-18.013-12.542c-0.082-0.045-0.121-0.027-0.135-0.02
							c-0.055,0.026-0.097,0.098-0.103,0.176c-0.006,0.092,0.034,0.163,0.121,0.211c9.383,5.192,17.057,11.2,23.436,17.691
							c0.134,0.137,0.268,0.273,0.401,0.411c-0.18,0.018-0.36,0.037-0.539,0.056c-6.067,0.642-12.001,0.53-17.802-0.248
							c-0.068-0.009-0.111,0.002-0.129,0.083c-0.016,0.07,0.001,0.153,0.042,0.213c0.035,0.051,0.084,0.08,0.149,0.089
							c6.009,0.812,12.156,0.912,18.454,0.197c0.055-0.01,0.111-0.02,0.166-0.03c0.039,0.04,0.077,0.081,0.116,0.121
							c3.529,3.696,6.498,7.374,9.1,11.148c0.015,0.022,0.031,0.045,0.046,0.067c0.002,0.026,0.005,0.052,0.007,0.079
							c0.006,0.068,0.043,0.12,0.111,0.153c0.024,0.012,0.048,0.024,0.073,0.037c0.015,0.023,0.03,0.045,0.046,0.068
							c2.276,3.347,4.427,7.007,6.468,11.181c0.111,0.228,0.222,0.456,0.332,0.684c-0.227-0.108-0.454-0.215-0.681-0.321
							c-6.421-3.008-13.065-5-19.535-5.977c-0.093-0.014-0.161,0.023-0.201,0.112c-0.029,0.064-0.031,0.139-0.006,0.187
							c0.012,0.022,0.036,0.053,0.11,0.065c6.81,1.03,13.782,3.179,20.475,6.433c0.032,0.016,0.064,0.031,0.096,0.047
							c0.015,0.033,0.031,0.066,0.046,0.098c3.426,7.351,6.259,15.669,7.998,25.934c0.015,0.094,0.059,0.108,0.08,0.115
							C176.684,193.161,176.79,193.132,176.85,193.07C176.85,193.07,176.85,193.07,176.85,193.07z"/>
					</g>
				</g>
				<g>
					<g>
						<g>
							<g>
								<path style="fill:#0A4D7A;" d="M279.525,157.719h-94.844c-9.2,0-16.658,7.458-16.658,16.658v198.061
									c0,9.2,7.458,16.658,16.658,16.658h94.844c9.2,0,16.658-7.458,16.658-16.658V174.376
									C296.183,165.176,288.725,157.719,279.525,157.719z"/>
							</g>
						</g>
						<path style="fill:#083954;" d="M279.525,157.719h-94.844c-9.2,0-16.658,7.458-16.658,16.658v198.06
							c0,5.339,2.522,10.08,6.428,13.128l120.362-217.798C292.255,161.857,286.376,157.719,279.525,157.719z"/>
						<path style="fill:#FFFFFF;" d="M250.621,165.834h-35.186c-0.967,0-1.759,0.792-1.759,1.759l0,0
							c0,0.968,0.792,1.759,1.759,1.759h35.186c0.968,0,1.759-0.792,1.759-1.759l0,0
							C252.38,166.626,251.588,165.834,250.621,165.834z"/>
					</g>
					<path style="fill:#CAEDFF;" d="M279.525,163.96h-13.917l-5.007,9.49c-1.872,3.547-5.553,5.767-9.564,5.767h-37.868
						c-4.011,0-7.692-2.22-9.564-5.767l-5.007-9.49h-13.917c-5.743,0-10.416,4.673-10.416,10.416v198.061
						c0,5.743,4.673,10.416,10.416,10.416h94.844c5.744,0,10.416-4.673,10.416-10.416V174.376
						C289.941,168.633,285.269,163.96,279.525,163.96z"/>
					<path style="opacity:0.85;fill:#BAE6F7;" d="M289.941,174.378v2.198L177.523,380c-2.005-1.909-3.259-4.589-3.259-7.568V174.378
						c0-5.746,4.676-10.421,10.412-10.421h13.921l5.003,9.496c1.88,3.548,5.553,5.765,9.573,5.765h37.868
						c4.01,0,7.683-2.217,9.563-5.765l5.003-9.496h13.921C285.265,163.957,289.941,168.633,289.941,174.378z"/>
				</g>
				<g>
					<path style="fill:#FFFFFF;" d="M336.392,193.783H192.325c-4.027,0-7.292,3.265-7.292,7.292v35.654
						c0,4.027,3.265,7.292,7.292,7.292h144.067c4.027,0,7.292-3.265,7.292-7.292v-35.654
						C343.683,197.047,340.419,193.783,336.392,193.783z"/>
					<g>
						<g>
							<g>
								<path style="fill:#FBBE42;" d="M255.119,210.541l0.977,3.008c0.068,0.21,0.264,0.352,0.484,0.352h3.163
									c0.493,0,0.699,0.632,0.299,0.922l-2.559,1.859c-0.178,0.13-0.253,0.36-0.185,0.57l0.977,3.008
									c0.153,0.469-0.385,0.86-0.784,0.57l-2.559-1.859c-0.178-0.13-0.42-0.13-0.599,0l-2.558,1.859
									c-0.399,0.29-0.937-0.1-0.784-0.57l0.977-3.008c0.068-0.21-0.007-0.44-0.185-0.57l-2.559-1.859
									c-0.399-0.29-0.194-0.922,0.299-0.922h3.163c0.221,0,0.416-0.142,0.485-0.352l0.977-3.008
									C254.302,210.071,254.966,210.071,255.119,210.541z"/>
								<path style="fill:#FBBE42;" d="M272.665,210.541l0.977,3.008c0.068,0.21,0.264,0.352,0.485,0.352h3.162
									c0.494,0,0.699,0.632,0.299,0.922l-2.558,1.859c-0.179,0.13-0.253,0.36-0.185,0.57l0.977,3.008
									c0.152,0.469-0.385,0.86-0.784,0.57l-2.559-1.859c-0.179-0.13-0.42-0.13-0.599,0l-2.559,1.859
									c-0.399,0.29-0.936-0.1-0.784-0.57l0.977-3.008c0.068-0.21-0.007-0.44-0.185-0.57l-2.559-1.859
									c-0.399-0.29-0.194-0.922,0.299-0.922h3.162c0.221,0,0.417-0.142,0.485-0.352l0.977-3.008
									C271.848,210.071,272.512,210.071,272.665,210.541z"/>
								<path style="fill:#FBBE42;" d="M290.211,210.541l0.977,3.008c0.068,0.21,0.264,0.352,0.485,0.352h3.163
									c0.493,0,0.699,0.632,0.299,0.922l-2.559,1.859c-0.179,0.13-0.253,0.36-0.185,0.57l0.977,3.008
									c0.152,0.469-0.385,0.86-0.784,0.57l-2.559-1.859c-0.179-0.13-0.42-0.13-0.599,0l-2.559,1.859
									c-0.399,0.29-0.936-0.1-0.784-0.57l0.977-3.008c0.068-0.21-0.007-0.44-0.185-0.57l-2.559-1.859
									c-0.399-0.29-0.194-0.922,0.299-0.922h3.163c0.221,0,0.416-0.142,0.484-0.352l0.977-3.008
									C289.394,210.071,290.059,210.071,290.211,210.541z"/>
								<path style="fill:#FBBE42;" d="M307.757,210.541l0.977,3.008c0.068,0.21,0.264,0.352,0.484,0.352h3.163
									c0.493,0,0.699,0.632,0.299,0.922l-2.558,1.859c-0.179,0.13-0.253,0.36-0.185,0.57l0.977,3.008
									c0.153,0.469-0.385,0.86-0.784,0.57l-2.559-1.859c-0.179-0.13-0.42-0.13-0.599,0l-2.558,1.859
									c-0.399,0.29-0.937-0.1-0.784-0.57l0.977-3.008c0.068-0.21-0.007-0.44-0.185-0.57l-2.559-1.859
									c-0.399-0.29-0.194-0.922,0.299-0.922h3.163c0.221,0,0.416-0.142,0.485-0.352l0.977-3.008
									C306.941,210.071,307.605,210.071,307.757,210.541z"/>
								<path style="fill:#B1D7DD;" d="M325.303,210.541l0.977,3.008c0.068,0.21,0.264,0.352,0.485,0.352h3.162
									c0.494,0,0.699,0.632,0.299,0.922l-2.558,1.859c-0.179,0.13-0.253,0.36-0.185,0.57l0.977,3.008
									c0.152,0.469-0.385,0.86-0.784,0.57l-2.559-1.859c-0.178-0.13-0.42-0.13-0.599,0l-2.559,1.859
									c-0.399,0.29-0.937-0.1-0.784-0.57l0.977-3.008c0.068-0.21-0.007-0.44-0.185-0.57l-2.559-1.859
									c-0.399-0.29-0.194-0.922,0.299-0.922h3.162c0.221,0,0.417-0.142,0.485-0.352l0.977-3.008
									C324.487,210.071,325.151,210.071,325.303,210.541z"/>
							</g>
							<rect x="249.015" y="225.865" style="fill:#B1D7DD;" width="51.024" height="1.417"/>
							<rect x="249.015" y="202.537" style="fill:#379CF7;" width="51.024" height="2.671"/>
							<rect x="249.015" y="231.259" style="fill:#B1D7DD;" width="51.024" height="1.417"/>
							<rect x="249.015" y="236.268" style="fill:#B1D7DD;" width="23.323" height="1.417"/>
						</g>
						<g>
							
								<ellipse transform="matrix(0.9737 -0.2278 0.2278 0.9737 -44.3138 55.3093)" style="fill:#7BC7FF;" cx="217.487" cy="219.657" rx="20.371" ry="20.371"/>
							<g>
								<defs>
									
										<ellipse id="SVGID_1_" transform="matrix(0.9737 -0.2278 0.2278 0.9737 -44.3138 55.3093)" cx="217.487" cy="219.657" rx="20.371" ry="20.371"/>
								</defs>
								<clipPath id="SVGID_00000107585766270365638520000003266149914765071537_">
									<use xlink:href="#SVGID_1_"  style="overflow:visible;"/>
								</clipPath>
								<g style="clip-path:url(#SVGID_00000107585766270365638520000003266149914765071537_);">
									<path style="fill:#0A4D7A;" d="M227.591,231.99l-1.788-18.823c0-4.82-1.893-9.254-6.993-7.939l0,0
										c-2.305-1.208-5.177-0.927-7.062,0.867c-1.995,1.9-3.138,4.789-3.138,7.703l-1.998,18.298L227.591,231.99z"/>
									<g>
										<g id="XMLID_1_">
											<path style="fill:#FFA683;" d="M220.51,222.321v4.144c0,0-0.579,3.24-3.306,3.787c-2.843-0.746-3.283-3.787-3.283-3.787
												v-4.144H220.51z"/>
										</g>
										<path style="fill:#E57C5C;" d="M220.51,221.728v2.638c-0.998,0.539-2.13,0.83-3.294,0.83c-1.165,0-2.296-0.291-3.295-0.83
											v-2.638H220.51z"/>
									</g>
									<path style="fill:#FFA683;" d="M223.898,213.388c-3.029-0.085-5.012-2.43-5.012-2.43c-1.845,1.606-8.311,2.43-8.311,2.43
										l-0.044,2.552c0,1.923,0.812,4.26,2.111,6.058c1.057,1.463,2.769,2.31,4.573,2.31c1.805,0,3.516-0.847,4.573-2.31
										c1.3-1.798,2.111-4.135,2.111-6.058L223.898,213.388z"/>
									<path style="fill:#FFA683;" d="M233.509,233.357c-2.581-4.439-13.507-6.892-13.507-6.892l-2.872,1.101l-2.873-1.101
										c0,0-10.926,2.452-13.507,6.892l-3.166,23.925l5.025-0.078l2.942-19.976c0,0,1.858,6.452,1.755,10.22
										c-0.103,3.768-1.276,9.996-1.276,9.996h10.808h0.585h10.808c0,0-1.173-6.228-1.276-9.996
										c-0.103-3.768,1.755-10.22,1.755-10.22l2.942,19.976l5.025,0.078L233.509,233.357z"/>
									<path style="fill:#379CF7;" d="M213.68,231.55"/>
									<path style="fill:#379CF7;" d="M225.983,228.324c-0.872,2.489-3.123,6.296-8.819,6.594
										c-5.714-0.298-7.962-4.129-8.828-6.618c-1.669,0.645-3.411,1.459-4.861,2.424l1.963,6.504
										c0.031,0.049,0.058,0.114,0.087,0.17l0.025-0.17c0,0,0.082,0.286,0.206,0.755c0.021,0.072,0.04,0.149,0.06,0.226
										c0.509,1.946,1.568,6.368,1.489,9.24c-0.103,3.768-1.276,9.996-1.276,9.996h10.808h0.585h10.808
										c0,0-1.173-6.228-1.276-9.996c-0.103-3.768,1.755-10.22,1.755-10.22l0.041,0.276c0.045-0.098,0.089-0.196,0.14-0.276
										l1.952-6.465C229.397,229.792,227.656,228.974,225.983,228.324z"/>
								</g>
							</g>
						</g>
					</g>
				</g>
				<g>
					<path style="fill:#FFA683;" d="M358.12,252.112c-0.727-0.016-1.389-0.422-1.727-1.066l-10.438-20.777
						c0,0-1.249-4.996-2.718-4.996l-0.147,6.612l7.06,25.545c0.409,1.596,1.242,2.96,3.372,3.01
						c4.338,0.101,12.272,1.492,17.443,2.848c5.29,1.388,9.74-0.033,9.74-0.033C381.035,251.574,362.568,252.21,358.12,252.112z"/>
					<g>
						<g>
							<g>
								<path style="fill:#FFA683;" d="M373.739,249.5v5.907h-8.968v-3.327c0,0-5.897-1.392-5.61-6.716
									c0.287-5.323,2.785-7.903,4.136-8.313c1.351-0.41,7.862,2.211,7.985,2.539c0.123,0.328,0.819,5.979,0.819,5.979
									L373.739,249.5z"/>
								<path style="fill:#004CBA;" d="M364.321,241.433c0,0,1.589-2.242,3.07-1.132c1.481,1.111,0.741,3.332-1.111,4.443
									c0,0,1.851,6.294,5.554,5.924c3.702-0.37,8.457-4.281,8.047-10.382c-0.41-6.101-8.377-10.397-12.735-9.541
									C362.765,231.605,358.465,236.478,364.321,241.433z"/>
								<path style="fill:#004CBA;" d="M379.841,236.437c0,0,4.832-6.142,9.664-0.819c4.832,5.323,7.862,11.302,10.074,12.449
									c2.211,1.146-1.884,3.931-7.207,2.211C387.048,248.558,380.168,242.006,379.841,236.437z"/>
								<path style="fill:#ED7D5A;" d="M364.771,255.407v-3.327c0,0,3.666,0.144,5.225-1.275c0,0-1.094,2.537-3.491,2.606v1.996
									H364.771z"/>
							</g>
							<path style="fill:#006CBC;" d="M360.833,302.659c0,0,2.113,33.034,4.802,39.948c2.689,6.914,19.697,38.367,19.697,38.367
								l8.811-1.94l-12.566-37.58c-0.096,2.305-1.765-8.53,1.344-19.494c1.824-6.434,1.121-13.455-1.606-19.065l-22.017-0.237"/>
							<path style="fill:#379CF7;" d="M381.143,301.267c0,0-0.825,9.178-11.379,19.59c-10.659,10.515-14.837,17.573-14.837,17.573
								l-1.584,45.518h-8.787c0,0-5.186-47.967-5.042-49.695c0.144-1.728,14.693-32.986,16.421-35.723
								C357.664,295.793,381.143,301.267,381.143,301.267z"/>
							<path style="fill:#57BFFF;" d="M374.661,254.932c0,0,9.424,0.704,5.954,12.388c-3.793,12.772,0.555,33.242,1.419,35.355
								l-2.825,1.126c-8.466,3.181-17.833,2.979-26.154-0.565h0c0,0,7.491-16.517,2.161-25.16
								c-3.428-5.559-2.417-11.168,1.584-16.133c2.593-3.217,5.862-6.568,7.154-6.628L374.661,254.932z"/>
							<path style="fill:#2481C6;" d="M344.558,383.951h1.857l-3.761-49.349c0.621-1.029,2.772-4.97,9.293-17.523
								c2.271-4.369,3.861-8.544,4.997-12.459c-1.182-0.341-2.352-0.748-3.501-1.223c-4.656,9.566-13.815,29.488-13.929,30.857
								C339.367,335.978,344.558,383.951,344.558,383.951z"/>
							<path style="fill:#30AFEF;" d="M362.805,274.968c-4.401,1.63-1.131,13.324-5.864,29.649c-1.315-0.385-2.614-0.84-3.887-1.382
								h0c0,0,7.491-16.517,2.161-25.16c-1.689-2.739-2.296-5.491-2.003-8.172l18.681-4.246
								C371.893,265.658,368.79,272.751,362.805,274.968z"/>
							<path style="fill:#FFA683;" d="M322.538,245.709c0,0,17.1,28.419,22.092,30.034c2.219,0.718,16.047-4.683,21.882-5.642
								c3.153-0.518,5.37-3.383,5.078-6.565l0,0c-0.335-3.647-4.518-6.749-8.096-5.965l-19.197,5.981
								c0,0-16.255-16.809-19.875-20.651c0,0-1.5-4.729-3.731-4.729C318.695,238.173,321.725,244.084,322.538,245.709z"/>
							<path style="fill:#004CBA;" d="M336.175,386.859c2.424-0.789,6.96-1.749,8.602-2.905h8.533
								c-0.085,1.71-0.13,3.372-0.153,4.477c-0.015,0.742-0.621,1.332-1.363,1.332h-16.989c-1.112,0-1.517-1.454-0.57-2.037
								C334.728,387.423,335.362,387.124,336.175,386.859z"/>
							<path style="fill:#004CBA;" d="M377.787,385.755c2.183-1.316,6.384-3.277,7.723-4.774l8.312-1.929
								c0.304,1.685,0.636,3.314,0.863,4.396c0.153,0.726-0.304,1.438-1.027,1.606l-16.549,3.84
								c-1.083,0.251-1.806-1.074-1.016-1.855C376.505,386.632,377.054,386.197,377.787,385.755z"/>
							<path style="opacity:0.58;fill:#ED7D5A;" d="M344.632,266.035c4.02,0.098,22.001-6.647,26.778-3.424
								c-0.882-3.225-4.648-5.756-7.917-5.039l-19.197,5.981c0,0-16.255-16.809-19.875-20.651
								C324.422,242.902,340.261,265.928,344.632,266.035z"/>
						</g>
						<path style="fill:#FFFFFF;" d="M379.712,236.073l-1.255,0.226c0,0,1.623,2.633,1.284,5.096l1.623-0.302
							C381.364,241.093,381.193,236.602,379.712,236.073z"/>
					</g>
				</g>
				<g>
					<g>
						<path style="fill:#FFFFFF;" d="M267.046,255.663H122.98c-4.027,0-7.292,3.265-7.292,7.292v35.654
							c0,4.027,3.265,7.292,7.292,7.292h144.067c4.027,0,7.292-3.265,7.292-7.292v-35.654
							C274.338,258.928,271.073,255.663,267.046,255.663z"/>
						<g>
							<g>
								<g>
									<path style="fill:#FBBE42;" d="M185.773,272.421l0.977,3.008c0.068,0.21,0.264,0.352,0.484,0.352h3.162
										c0.494,0,0.699,0.632,0.299,0.922l-2.559,1.859c-0.178,0.13-0.253,0.36-0.185,0.57l0.977,3.008
										c0.153,0.469-0.385,0.86-0.784,0.57l-2.558-1.859c-0.179-0.13-0.42-0.13-0.599,0l-2.559,1.859
										c-0.399,0.29-0.937-0.1-0.784-0.57l0.977-3.008c0.068-0.21-0.007-0.44-0.185-0.57l-2.559-1.859
										c-0.399-0.29-0.194-0.922,0.299-0.922h3.162c0.221,0,0.416-0.142,0.485-0.352l0.977-3.008
										C184.957,271.952,185.621,271.952,185.773,272.421z"/>
									<path style="fill:#FBBE42;" d="M203.32,272.421l0.977,3.008c0.068,0.21,0.264,0.352,0.485,0.352h3.162
										c0.494,0,0.699,0.632,0.3,0.922l-2.559,1.859c-0.179,0.13-0.253,0.36-0.185,0.57l0.977,3.008
										c0.152,0.469-0.385,0.86-0.784,0.57l-2.559-1.859c-0.179-0.13-0.42-0.13-0.599,0l-2.558,1.859
										c-0.399,0.29-0.937-0.1-0.784-0.57l0.977-3.008c0.068-0.21-0.006-0.44-0.185-0.57l-2.558-1.859
										c-0.399-0.29-0.194-0.922,0.299-0.922h3.162c0.221,0,0.417-0.142,0.485-0.352l0.977-3.008
										C202.503,271.952,203.167,271.952,203.32,272.421z"/>
									<path style="fill:#FBBE42;" d="M220.866,272.421l0.977,3.008c0.068,0.21,0.264,0.352,0.485,0.352h3.163
										c0.493,0,0.699,0.632,0.299,0.922l-2.558,1.859c-0.179,0.13-0.253,0.36-0.185,0.57l0.977,3.008
										c0.152,0.469-0.385,0.86-0.784,0.57l-2.558-1.859c-0.179-0.13-0.421-0.13-0.599,0l-2.558,1.859
										c-0.399,0.29-0.937-0.1-0.784-0.57l0.977-3.008c0.068-0.21-0.007-0.44-0.185-0.57l-2.559-1.859
										c-0.399-0.29-0.194-0.922,0.299-0.922h3.163c0.221,0,0.416-0.142,0.484-0.352l0.977-3.008
										C220.049,271.952,220.713,271.952,220.866,272.421z"/>
									<path style="fill:#FBBE42;" d="M238.412,272.421l0.977,3.008c0.068,0.21,0.264,0.352,0.484,0.352h3.163
										c0.494,0,0.699,0.632,0.299,0.922l-2.559,1.859c-0.179,0.13-0.253,0.36-0.185,0.57l0.977,3.008
										c0.153,0.469-0.385,0.86-0.784,0.57l-2.559-1.859c-0.179-0.13-0.42-0.13-0.599,0l-2.559,1.859
										c-0.399,0.29-0.937-0.1-0.784-0.57l0.977-3.008c0.068-0.21-0.007-0.44-0.185-0.57l-2.559-1.859
										c-0.399-0.29-0.194-0.922,0.299-0.922h3.163c0.221,0,0.416-0.142,0.485-0.352l0.977-3.008
										C237.595,271.952,238.259,271.952,238.412,272.421z"/>
									<path style="fill:#FBBE42;" d="M255.958,272.421l0.977,3.008c0.068,0.21,0.264,0.352,0.485,0.352h3.162
										c0.494,0,0.699,0.632,0.299,0.922l-2.558,1.859c-0.179,0.13-0.253,0.36-0.185,0.57l0.977,3.008
										c0.153,0.469-0.385,0.86-0.784,0.57l-2.559-1.859c-0.178-0.13-0.42-0.13-0.599,0l-2.559,1.859
										c-0.399,0.29-0.937-0.1-0.784-0.57l0.977-3.008c0.068-0.21-0.007-0.44-0.185-0.57l-2.558-1.859
										c-0.399-0.29-0.194-0.922,0.299-0.922h3.162c0.221,0,0.417-0.142,0.485-0.352l0.977-3.008
										C255.141,271.952,255.805,271.952,255.958,272.421z"/>
								</g>
								<rect x="179.669" y="287.745" style="fill:#B1D7DD;" width="51.024" height="1.417"/>
								<rect x="179.669" y="264.418" style="fill:#0A4D7A;" width="51.024" height="2.671"/>
								<rect x="179.669" y="293.14" style="fill:#B1D7DD;" width="51.024" height="1.417"/>
								<rect x="179.669" y="298.149" style="fill:#B1D7DD;" width="23.323" height="1.417"/>
							</g>
							<g>
								
									<ellipse transform="matrix(0.7071 -0.7071 0.7071 0.7071 -155.6876 187.2123)" style="fill:#7BC7FF;" cx="148.141" cy="281.538" rx="20.371" ry="20.371"/>
							</g>
						</g>
					</g>
					<g>
						<g>
							<path style="fill:#0A85E0;" d="M104.641,359.354c0,0,34.546-28.948,40.623-18.712c6.077,10.236-2.879,43.342-2.879,43.342
								L104.641,359.354z"/>
							<path style="fill:#006CBC;" d="M122.77,371.184l19.616,12.8c0,0,8.187-30.283,3.577-41.872
								C148.07,357.353,131.905,367.005,122.77,371.184z"/>
							<g>
								<path style="fill:#379CF7;" d="M122.34,356.262c0,0,21.394,17.168,23.137,23.35c2.826,10.023-13.928,8.903-21.165,8.903
									c-7.237,0-53.355-1.276-53.355-1.276l0.417-7.094l42.542-2.026c0,0-23.564-3.493-22.691-17.093
									C92.1,347.426,122.34,356.262,122.34,356.262z"/>
								<path style="fill:#0A85E0;" d="M144.318,385.283c-3.904,3.856-14.596,3.23-20.004,3.23c-7.24,0-53.36-1.273-53.36-1.273
									l0.424-7.095l42.543-2.024c0,0,16.948,8.156,30.059,7.201C144.096,385.311,144.212,385.302,144.318,385.283z"/>
								<path style="fill:#004CBA;" d="M71.175,387.116c0,0-1.879,4.238-0.44,7.037c1.439,2.799-4.798,0.76-5.798-4.758
									c-1-5.518-0.52-12.115,6.437-9.156L71.175,387.116z"/>
							</g>
						</g>
						<path style="fill:#0A4D7A;" d="M95.151,313.719c0,0,15.531-44.879,15.993-44.675c1.813,0.8,5.011,1.546,5.011,1.546
							l-6.397,49.26L95.151,313.719z"/>
						<path style="fill:#083954;" d="M111.198,308.602c-3.533-1.671-7.943-3.625-13.115-3.305c-2.132,6.112-2.932,8.423-2.932,8.423
							l14.607,6.131L111.198,308.602z"/>
						<g>
							<path style="fill:#FFA683;" d="M114.595,301.85c-1.146,4.237-5.693,3.448-5.693,3.448v4.03h-7.844v-5.449
								c0.009,0,0.028,0.009,0.038,0.009c4.077,0.94,8.502-2.02,6.548-3.476c-1.945-1.447-2.367-3.852-1.353-5.026
								c1.024-1.174,3.476-0.301,3.476-0.301c2.349-0.066,3.965-0.357,5.007-0.883C115.178,296.608,115.206,299.586,114.595,301.85z
								"/>
							<path style="fill:#004CBA;" d="M109.762,295.087c0,0-2.448-0.878-3.467,0.297c-1.019,1.176-0.601,3.582,1.351,5.032
								c1.949,1.449-2.478,4.411-6.553,3.47c-4.076-0.94-6.351-9.448-2.854-14.984c3.211-5.084,14.495-7.292,16.768-1.962
								C117.279,292.271,117.414,294.879,109.762,295.087z"/>
							<path style="fill:#E57C5C;" d="M108.902,309.329v-4.03c0,0-2.644-0.354-3.676-0.899c0,0,1.383,1.676,2.299,2.046v2.884
								H108.902z"/>
						</g>
						<path style="fill:#0A4D7A;" d="M110.998,309.406c0,0-12.964-4.49-16.614,5.617c-3.65,10.107,2.553,34.335-4.058,42.651l0,0
							c10.223,4.771,21.943,5.197,32.486,1.18l1.42-0.541c0,0-4.531-30.901-4.748-29.828c-0.183,0.906,15.304,5.843,18.392,4.158
							c3.088-1.685,21.781-22.791,21.781-22.791l-6.291-0.933l-16.846,11.089C136.521,320.01,115.26,309.685,110.998,309.406z"/>
						<path style="fill:#FFA683;" d="M159.658,309.854c0,0,6.477-2.799,6.877-4.078h-9.333c-0.969,0-1.881,0.463-2.452,1.247
							l-1.384,1.898L159.658,309.854z"/>
						<path style="fill:#083954;" d="M124.233,358.314c0,0-3.981-27.148-4.659-29.668c0.077,0.078,0.206,0.168,0.384,0.27
							c-0.299-0.271-0.474-0.43-0.474-0.43s-9.886-2.399-13.404-6.557c0,0,3.359,6.877,7.677,8.476
							c3.856,1.428,2.487,22.23,5.452,29.629c1.213-0.34,2.417-0.727,3.604-1.18L124.233,358.314z"/>
						<path style="fill:#FFA683;" d="M111.625,269.258c0,0,1.649-5.889,4.103-6.303l0.002,7.689L111.625,269.258z"/>
					</g>
					<g>
						<defs>
							
								<ellipse id="SVGID_00000049926586401248488810000000986902105863996600_" transform="matrix(0.7071 -0.7071 0.7071 0.7071 -155.6876 187.2123)" cx="148.141" cy="281.538" rx="20.371" ry="20.371"/>
						</defs>
						<clipPath id="SVGID_00000115508133719652511760000013774344358526306729_">
							<use xlink:href="#SVGID_00000049926586401248488810000000986902105863996600_"  style="overflow:visible;"/>
						</clipPath>
						<path style="clip-path:url(#SVGID_00000115508133719652511760000013774344358526306729_);fill:#FBBE42;" d="M170.514,311.378
							l-1.313-11.756c-0.233-1.894-1.301-3.594-2.925-4.655l-4.078-2.665l-0.017,0.101l0-0.092l-3.365-1.302l-3.423-1.326
							l-2.835-1.098l-1.244-0.482l-3.12,1.594l-3.117-1.594l-1.094,0.425l-2.675,1.033l-3.617,1.401l-3.48,1.349l0,0.055
							l-3.982,2.601c-1.623,1.061-2.691,2.761-2.924,4.655l-1.313,11.756h8.264l0.023,9.78h27.834l0.023-9.78H170.514z"/>
						<g style="clip-path:url(#SVGID_00000115508133719652511760000013774344358526306729_);">
							<path style="fill:#0A4D7A;" d="M148.326,267.453L148.326,267.453c-4.59,0-8.312,3.721-8.312,8.312v3.965h16.623v-3.965
								C156.637,271.174,152.916,267.453,148.326,267.453z"/>
							<g>
								<g id="XMLID_6_">
									<path style="fill:#FFA683;" d="M151.621,285.921v2.911c0,0-0.015,0.086-0.052,0.233c-0.433,1.714-1.882,5.032-3.305,4.999
										c-1.423-0.033-2.818-3.418-3.144-5.155c-0.009-0.049-0.013-0.076-0.013-0.076v-2.911H151.621z"/>
								</g>
								<path style="fill:#E57C5C;" d="M151.621,285.335v2.608c-0.987,0.533-2.106,0.821-3.257,0.821
									c-1.151,0-2.27-0.288-3.257-0.821v-2.608H151.621z"/>
							</g>
							<g>
								<path style="fill:#FFA683;" d="M143.963,279.765c0-1.113-0.902-2.016-2.016-2.016c-1.113,0-2.016,0.903-2.016,2.016
									c0,1.114,0.902,2.016,2.016,2.016C143.06,281.781,143.963,280.878,143.963,279.765z"/>
								<path style="fill:#FFA683;" d="M156.595,279.765c0-1.113-0.903-2.016-2.016-2.016c-1.113,0-2.016,0.903-2.016,2.016
									c0,1.114,0.903,2.016,2.016,2.016C155.692,281.781,156.595,280.878,156.595,279.765z"/>
							</g>
							<path style="fill:#FFA683;" d="M154.97,276.344c-2.384-1.331-3.348-2.395-3.348-2.395h-6.544
								c-0.525,1.481-3.266,2.395-3.266,2.395l-0.056,3.268c0,1.9,0.802,4.212,2.087,5.99c0.524,0.722,1.206,1.293,1.982,1.683
								c0.778,0.39,1.645,0.601,2.538,0.601c1.786,0,3.478-0.839,4.523-2.284c1.286-1.779,2.087-4.09,2.087-5.99L154.97,276.344z"/>
						</g>
					</g>
				</g>
				<g>
					<g>
						<path style="fill:#FFFFFF;" d="M336.392,317.174H192.325c-4.027,0-7.292,3.265-7.292,7.292v35.654
							c0,4.027,3.265,7.292,7.292,7.292h144.067c4.027,0,7.292-3.265,7.292-7.292v-35.654
							C343.683,320.439,340.419,317.174,336.392,317.174z"/>
						<g>
							<g>
								<g>
									<path style="fill:#FBBE42;" d="M255.119,333.932l0.977,3.008c0.068,0.21,0.264,0.352,0.484,0.352h3.163
										c0.493,0,0.699,0.632,0.299,0.922l-2.559,1.859c-0.178,0.13-0.253,0.36-0.185,0.57l0.977,3.008
										c0.153,0.469-0.385,0.86-0.784,0.57l-2.559-1.859c-0.178-0.13-0.42-0.13-0.599,0l-2.558,1.859
										c-0.399,0.29-0.937-0.1-0.784-0.57l0.977-3.008c0.068-0.21-0.007-0.44-0.185-0.57l-2.559-1.859
										c-0.399-0.29-0.194-0.922,0.299-0.922h3.163c0.221,0,0.416-0.142,0.485-0.352l0.977-3.008
										C254.302,333.463,254.966,333.463,255.119,333.932z"/>
									<path style="fill:#FBBE42;" d="M272.665,333.932l0.977,3.008c0.068,0.21,0.264,0.352,0.485,0.352h3.162
										c0.494,0,0.699,0.632,0.299,0.922l-2.558,1.859c-0.179,0.13-0.253,0.36-0.185,0.57l0.977,3.008
										c0.152,0.469-0.385,0.86-0.784,0.57l-2.559-1.859c-0.179-0.13-0.42-0.13-0.599,0l-2.559,1.859
										c-0.399,0.29-0.936-0.1-0.784-0.57l0.977-3.008c0.068-0.21-0.007-0.44-0.185-0.57l-2.559-1.859
										c-0.399-0.29-0.194-0.922,0.299-0.922h3.162c0.221,0,0.417-0.142,0.485-0.352l0.977-3.008
										C271.848,333.463,272.512,333.463,272.665,333.932z"/>
									<path style="fill:#B1D7DD;" d="M290.211,333.932l0.977,3.008c0.068,0.21,0.264,0.352,0.485,0.352h3.163
										c0.493,0,0.699,0.632,0.299,0.922l-2.559,1.859c-0.179,0.13-0.253,0.36-0.185,0.57l0.977,3.008
										c0.152,0.469-0.385,0.86-0.784,0.57l-2.559-1.859c-0.179-0.13-0.42-0.13-0.599,0l-2.559,1.859
										c-0.399,0.29-0.936-0.1-0.784-0.57l0.977-3.008c0.068-0.21-0.007-0.44-0.185-0.57l-2.559-1.859
										c-0.399-0.29-0.194-0.922,0.299-0.922h3.163c0.221,0,0.416-0.142,0.484-0.352l0.977-3.008
										C289.394,333.463,290.059,333.463,290.211,333.932z"/>
									<path style="fill:#FBBE42;" d="M289.645,333.605c-0.173,0.029-0.337,0.126-0.403,0.327l-0.977,3.008
										c-0.068,0.21-0.264,0.352-0.484,0.352h-3.163c-0.494,0-0.699,0.632-0.299,0.922l2.558,1.859
										c0.179,0.13,0.253,0.36,0.185,0.57l-0.977,3.008c-0.152,0.469,0.385,0.86,0.784,0.57l2.559-1.859
										c0.065-0.047,0.142-0.058,0.218-0.071V333.605z"/>
									<path style="fill:#B1D7DD;" d="M307.757,333.932l0.977,3.008c0.068,0.21,0.264,0.352,0.484,0.352h3.163
										c0.493,0,0.699,0.632,0.299,0.922l-2.558,1.859c-0.179,0.13-0.253,0.36-0.185,0.57l0.977,3.008
										c0.153,0.469-0.385,0.86-0.784,0.57l-2.559-1.859c-0.179-0.13-0.42-0.13-0.599,0l-2.558,1.859
										c-0.399,0.29-0.937-0.1-0.784-0.57l0.977-3.008c0.068-0.21-0.007-0.44-0.185-0.57l-2.559-1.859
										c-0.399-0.29-0.194-0.922,0.299-0.922h3.163c0.221,0,0.416-0.142,0.485-0.352l0.977-3.008
										C306.941,333.463,307.605,333.463,307.757,333.932z"/>
									<path style="fill:#B1D7DD;" d="M325.303,333.932l0.977,3.008c0.068,0.21,0.264,0.352,0.485,0.352h3.162
										c0.494,0,0.699,0.632,0.299,0.922l-2.558,1.859c-0.179,0.13-0.253,0.36-0.185,0.57l0.977,3.008
										c0.152,0.469-0.385,0.86-0.784,0.57l-2.559-1.859c-0.178-0.13-0.42-0.13-0.599,0l-2.559,1.859
										c-0.399,0.29-0.937-0.1-0.784-0.57l0.977-3.008c0.068-0.21-0.007-0.44-0.185-0.57l-2.559-1.859
										c-0.399-0.29-0.194-0.922,0.299-0.922h3.162c0.221,0,0.417-0.142,0.485-0.352l0.977-3.008
										C324.487,333.463,325.151,333.463,325.303,333.932z"/>
								</g>
								<rect x="249.015" y="349.256" style="fill:#B1D7DD;" width="51.024" height="1.417"/>
								<rect x="249.015" y="325.928" style="fill:#FF5A5A;" width="51.024" height="2.671"/>
								<rect x="249.015" y="354.651" style="fill:#B1D7DD;" width="51.024" height="1.417"/>
								<rect x="249.015" y="359.66" style="fill:#B1D7DD;" width="23.323" height="1.417"/>
							</g>
						</g>
					</g>
					<g>
						
							<ellipse transform="matrix(0.5222 -0.8528 0.8528 0.5222 -188.1653 349.0989)" style="fill:#7BC7FF;" cx="217.487" cy="342.486" rx="20.371" ry="20.371"/>
						<g>
							<defs>
								
									<ellipse id="SVGID_00000124864087889200066200000017989158701365431688_" transform="matrix(0.5222 -0.8528 0.8528 0.5222 -188.1653 349.0989)" cx="217.487" cy="342.486" rx="20.371" ry="20.371"/>
							</defs>
							<clipPath id="SVGID_00000004518097501591197010000008793554663076148914_">
								<use xlink:href="#SVGID_00000124864087889200066200000017989158701365431688_"  style="overflow:visible;"/>
							</clipPath>
							<g style="clip-path:url(#SVGID_00000004518097501591197010000008793554663076148914_);">
								<path style="fill:#0A4D7A;" d="M209.281,338.119c0,0-1.162-4.619,0.639-6.652c1.801-2.034,5.374-4.183,8.279-3.079
									c0,0,2.295-1.394,4.386-0.233c2.092,1.162,5.113,2.179,5.432,0.784c0,0,0.174,5.316-2.208,6.158l-0.988,4.096h-15.251
									L209.281,338.119z"/>
								<path style="fill:#0A4D7A;" d="M233.509,356.186c-2.581-4.439-13.507-6.892-13.507-6.892l-2.872,1.101l-2.873-1.101
									c0,0-10.926,2.453-13.507,6.892l-3.166,23.925l5.025-0.078l2.942-19.976c0,0,1.858,6.452,1.755,10.22
									c-0.103,3.768-1.276,9.996-1.276,9.996h10.808h0.585h10.808c0,0-1.173-6.228-1.276-9.996
									c-0.103-3.768,1.755-10.22,1.755-10.22l2.942,19.976l5.025,0.078L233.509,356.186z"/>
								<path style="fill:#379CF7;" d="M213.68,354.379"/>
								<g>
									<g id="XMLID_5_">
										<path style="fill:#FFA683;" d="M220.51,345.15v4.144c0,0-0.579,3.24-3.306,3.787c-2.843-0.746-3.283-3.787-3.283-3.787
											v-4.144H220.51z"/>
									</g>
									<path style="fill:#E57C5C;" d="M220.51,344.557v2.638c-0.998,0.539-2.13,0.83-3.294,0.83c-1.165,0-2.296-0.291-3.295-0.83
										v-2.638H220.51z"/>
								</g>
								<path style="fill:#FFA683;" d="M223.898,336.217c-3.029-0.085-5.012-2.43-5.012-2.43c-1.845,1.606-8.311,2.43-8.311,2.43
									l-0.044,2.552c0,1.923,0.812,4.26,2.111,6.058c1.057,1.463,2.769,2.31,4.573,2.31c1.805,0,3.516-0.847,4.573-2.31
									c1.3-1.798,2.111-4.135,2.111-6.058L223.898,336.217z"/>
								<path style="fill:#FFA683;" d="M212.273,339.078c0,1.011-0.819,1.83-1.83,1.83c-1.011,0-1.83-0.819-1.83-1.83
									c0-1.011,0.819-1.83,1.83-1.83C211.454,337.248,212.273,338.067,212.273,339.078z"/>
								<path style="fill:#FFA683;" d="M225.76,339.078c0,1.011-0.819,1.83-1.83,1.83c-1.011,0-1.83-0.819-1.83-1.83
									c0-1.011,0.819-1.83,1.83-1.83C224.94,337.248,225.76,338.067,225.76,339.078z"/>
							</g>
						</g>
					</g>
				</g>
				<g>
					<g>
						<circle style="fill:#FBBE42;" cx="309.636" cy="110.603" r="29.854"/>
						<path style="fill:#F9A643;" d="M309.636,80.749c-0.181,0-0.36,0.01-0.54,0.014c8.24,4.86,13.773,13.823,13.773,24.083
							c0,15.434-12.512,27.946-27.946,27.946c-2.037,0-4.021-0.223-5.934-0.637c5.363,5.139,12.633,8.303,20.647,8.303
							c16.488,0,29.854-13.366,29.854-29.854C339.491,94.115,326.124,80.749,309.636,80.749z"/>
					</g>
					<path style="fill:#7BC7FF;" d="M99.571,205.05c6.25,0,6.581-9.305,0.344-9.703c-0.059-0.004-0.118-0.007-0.178-0.01
						c0-0.039,0.003-0.077,0.003-0.116c0-6.651-5.392-12.043-12.043-12.043c-2.097,0-4.068,0.537-5.785,1.479
						c-2.11-3.925-6.253-6.595-11.022-6.595c-6.906,0-12.505,5.599-12.505,12.505c0,0.371,0.019,0.737,0.051,1.099
						c-1.28-0.368-2.63-0.569-4.028-0.569c-5.038,0-9.478,2.559-12.092,6.447c-2.151,3.199,0.217,7.506,4.072,7.506H99.571z"/>
					<path style="fill:#7BC7FF;" d="M291.61,129.038c8.19,0,8.624-12.193,0.451-12.714c-0.077-0.005-0.155-0.009-0.233-0.013
						c0.001-0.051,0.004-0.101,0.004-0.152c0-8.715-7.065-15.78-15.78-15.78c-2.747,0-5.33,0.703-7.58,1.938
						c-2.764-5.143-8.194-8.641-14.441-8.641c-9.049,0-16.385,7.336-16.385,16.385c0,0.486,0.025,0.965,0.067,1.44
						c-1.677-0.482-3.447-0.745-5.279-0.745c-6.602,0-12.419,3.352-15.845,8.447c-2.818,4.191,0.285,9.835,5.335,9.835H291.61z"/>
					<path style="fill:#7BC7FF;" d="M390.17,157.74c-7.526,0-7.924-11.204-0.414-11.683c0.071-0.005,0.143-0.009,0.214-0.012
						c0-0.047-0.004-0.093-0.004-0.14c0-8.008,6.492-14.501,14.501-14.501c2.525,0,4.898,0.646,6.965,1.781
						c2.54-4.726,7.529-7.94,13.271-7.94c8.316,0,15.057,6.741,15.057,15.057c0,0.446-0.023,0.887-0.061,1.324
						c1.541-0.443,3.167-0.685,4.85-0.685c6.066,0,11.412,3.081,14.56,7.762c2.59,3.851-0.262,9.038-4.903,9.038H390.17z"/>
				</g>
				<g>
					<g>
						<g>
							<path style="fill:#379CF7;" d="M416.682,367.451l1.481-0.494c0.214-2.56-0.885-6.869-6.693-13.519
								c-10.747-12.306-19.963-29.841-17.635-36.679c0,0-10.512,15.825-3.419,26.27
								C397.073,352.831,414.766,354.935,416.682,367.451z"/>
							<path style="fill:#006CBC;" d="M417.285,367.249l0.879-0.294c0.214-2.559-0.886-6.868-6.693-13.518
								c-10.747-12.306-19.963-29.841-17.635-36.679c0,0-5.567,14.542,1.654,24.278
								C402.618,350.649,415.334,352.648,417.285,367.249z"/>
						</g>
						<g>
							<path style="fill:#379CF7;" d="M420.986,356.933c-0.574,2.607-1.323,4.637-2.004,6.132l0.684,0.119
								c3.151-4.246,8.32-12.651,9.466-23.315c1.675-15.584,3.938-35.091,3.938-35.091s-15.865,13.089-12.313,31.278
								C422.528,345.125,422.066,352.032,420.986,356.933z"/>
							<g>
								<path style="fill:#006CBC;" d="M426.567,328.617c-0.867,13.005-3.32,27.308-6.5,32.989c0.462-0.355,0.955-0.728,1.459-1.106
									c3.019-4.66,6.665-11.886,7.605-20.631c1.675-15.584,3.938-35.091,3.938-35.091S427.695,311.691,426.567,328.617z"/>
							</g>
						</g>
						<g>
							<path style="fill:#379CF7;" d="M423.829,362.981c-1.352,1.543-2.607,2.634-3.619,3.39l0.417,0.332
								c3.694-1.698,10.287-5.451,15.005-12.208c6.894-9.874,15.636-22.173,15.636-22.173s-15.533,2.966-19.869,16.52
								C429.237,355.6,426.37,360.08,423.829,362.981z"/>
							<g>
								<path style="fill:#006CBC;" d="M438.066,345.974c-5.396,8.436-12.341,17.161-16.585,19.814
									c0.443-0.069,0.913-0.138,1.392-0.207c3.759-2.024,8.889-5.546,12.758-11.087c6.894-9.874,15.636-22.173,15.636-22.173
									S445.089,334.995,438.066,345.974z"/>
							</g>
						</g>
						<g>
							<path style="fill:#379CF7;" d="M417.881,362.501c0.974,2.775,1.687,4.681,2.106,6.001l0.561-0.128
								c-0.912-4.873-2.492-13.291-3.98-18.816c-2.192-8.136-0.485-12.086-2.248-26.248c-1.763-14.162-10.16-32.86-10.16-32.86
								s-5.423,19.735,2.329,38.556C414.242,347.826,413.587,350.27,417.881,362.501z"/>
							<path style="fill:#006CBC;" d="M420.022,368.494l0.106-0.024l0.064-1.991c-0.934-4.958-2.315-12.059-3.624-16.921
								c-2.192-8.136-0.485-12.086-2.248-26.248c-1.763-14.162-10.16-32.86-10.16-32.86s2.637,28.125,6.485,40.418
								C414.206,342.242,419.283,365.134,420.022,368.494z"/>
						</g>
					</g>
					<g>
						<path style="fill:#FFFFFF;" d="M403.976,365.648l3.399,20.115c0.317,1.875,1.941,3.247,3.842,3.247h19.651
							c1.901,0,3.525-1.372,3.842-3.247l3.399-20.115c0.307-1.819-1.094-3.477-2.939-3.477h-28.256
							C405.07,362.171,403.668,363.829,403.976,365.648z"/>
						<path style="fill:#CAEDFF;" d="M438.089,364.631c0-0.002-0.001-0.004-0.001-0.006c-0.034-0.19-0.085-0.372-0.154-0.549
							c-0.005-0.013-0.01-0.025-0.015-0.037c-0.067-0.164-0.144-0.319-0.238-0.468c-0.018-0.029-0.038-0.055-0.056-0.083
							c-0.088-0.129-0.181-0.252-0.287-0.366c-0.041-0.044-0.086-0.082-0.129-0.124c-0.096-0.091-0.192-0.181-0.301-0.259
							c-0.072-0.053-0.151-0.095-0.228-0.141c-0.093-0.055-0.183-0.114-0.283-0.159c-0.113-0.052-0.234-0.086-0.354-0.123
							c-0.077-0.024-0.15-0.056-0.23-0.074c-0.206-0.046-0.42-0.072-0.643-0.072h-8.947h-19.31c-1.702,0-3.009,1.415-2.962,3.062
							h25.234c-0.004,0.138,0,0.275-0.023,0.415l-3.399,20.115c-0.317,1.875-1.941,3.247-3.842,3.247h8.947
							c1.902,0,3.525-1.372,3.842-3.247l3.399-20.115C438.169,365.298,438.147,364.959,438.089,364.631z"/>
					</g>
				</g>
				<g>
					<g>
						<path style="fill:#0A4D7A;" d="M144.467,218.945h-44.371c-3.182,0-5.762,2.58-5.762,5.762v23.346v11.513l11.284-10.222
							c0.917-0.831,2.11-1.291,3.348-1.291h35.501c2.185,0,3.956-1.771,3.956-3.956v-21.196
							C148.423,220.717,146.652,218.945,144.467,218.945z"/>
						<g>
							<path style="fill:#FF5A5A;" d="M129.273,227.888c-1.921-1.918-5.031-1.918-6.949,0l-0.653,0.653l-0.654-0.653
								c-0.959-0.959-2.219-1.438-3.476-1.438c-1.257,0-2.514,0.478-3.474,1.438c-1.921,1.918-1.921,5.031,0,6.949l0.653,0.654
								l6.95,6.949l6.949-6.949l0.653-0.654c0.959-0.959,1.437-2.216,1.437-3.473C130.711,230.104,130.233,228.847,129.273,227.888z
								"/>
						</g>
					</g>
					<g>
						<path style="fill:#0A4D7A;" d="M408.295,171.902h-44.63c-3.201,0-5.796,2.595-5.796,5.796v23.482v11.58l11.35-10.282
							c0.922-0.836,2.123-1.298,3.367-1.298h35.708c2.198,0,3.979-1.782,3.979-3.979v-21.319
							C412.274,173.683,410.492,171.902,408.295,171.902z"/>
						<g>
							<path style="fill:#379CF7;" d="M397.736,187.825c0.798-0.063,1.426-0.729,1.426-1.542c0-0.855-0.693-1.549-1.549-1.549
								h-3.026c-0.151-0.022-0.306-0.034-0.464-0.033c-1.645,0.016-1.728,0.008-2.35-0.125c-1.318-0.283,0.234-1.886-0.589-4.828
								c-0.822-2.943-3.684-2.767-3.547-1.396c0.137,1.372,0.296,4.645-0.466,5.68c-1.724,2.342-4.524,2.554-4.524,2.554
								l-0.056,7.791l3.06,0.022c1.377,1.567,3.978,1.914,4.252,1.947v0.027h3.44l0.17,0.001c0.023,0,0.046-0.001,0.069-0.001h2.149
								c0.783,0,1.418-0.635,1.418-1.418c0-0.448-0.208-0.846-0.532-1.106c0.808-0.052,1.448-0.722,1.448-1.544
								c0-0.688-0.449-1.271-1.07-1.472h0.227c0.855,0,1.549-0.693,1.549-1.549l0,0
								C398.771,188.609,398.339,188.037,397.736,187.825z"/>
							<g>
								<polygon style="fill:#379CF7;" points="374.027,195.841 379.273,195.846 379.338,184.466 374.092,184.461 								"/>
							</g>
						</g>
					</g>
					<g>
						<path style="fill:#0A4D7A;" d="M306.385,299.167c-1.244-2.175-1.94-4.704-1.897-7.399c0.126-7.926,6.772-14.348,14.698-14.214
							c8.166,0.137,14.684,7.048,14.176,15.357c-0.438,7.17-6.226,13.008-13.393,13.508c-2.17,0.151-4.244-0.179-6.132-0.892
							c-0.913-0.345-1.914-0.381-2.849-0.098l-5.623,1.699l1.374-4.548C307.082,301.44,306.975,300.2,306.385,299.167z"/>
						<g>
							<path style="fill:#FBBE42;" d="M318.624,284.196l-1.488,4.579c-0.084,0.258-0.324,0.432-0.594,0.432h-4.815
								c-0.606,0-0.857,0.775-0.367,1.131l3.895,2.83c0.219,0.159,0.311,0.441,0.227,0.699l-1.488,4.579
								c-0.187,0.576,0.472,1.055,0.962,0.699l3.895-2.83c0.219-0.159,0.516-0.159,0.735,0l3.895,2.83
								c0.49,0.356,1.149-0.123,0.962-0.699l-1.488-4.579c-0.084-0.258,0.008-0.54,0.227-0.699l3.895-2.83
								c0.49-0.356,0.238-1.131-0.367-1.131h-4.815c-0.271,0-0.511-0.174-0.595-0.432l-1.488-4.579
								C319.626,283.62,318.811,283.62,318.624,284.196z"/>
						</g>
					</g>
				</g>
			</g>
		</g>
	</g>
</g>
<g id="DESIGNED_BY_FREEPIK">
	<g>
		<g id="XMLID_319_">
			<g id="XMLID_338_">
				<path id="XMLID_346_" style="fill:#1D262D;" d="M260.104,465.465c-0.432,0.443-0.803,0.931-1.108,1.453l-0.465-0.241
					c-0.067-0.298-0.349-0.503-0.659-0.466c-0.331,0.039-0.568,0.339-0.529,0.67c0.039,0.331,0.339,0.568,0.67,0.529
					c0.066-0.008,0.127-0.026,0.184-0.052l0.451,0.234c-0.251,0.554-0.433,1.139-0.539,1.744l0.747,0.132
					c0.23-1.306,0.85-2.507,1.792-3.473L260.104,465.465z"/>
				<path id="XMLID_345_" style="fill:#1D262D;" d="M265.592,463.163c-0.171,0-0.341,0.006-0.51,0.017l-0.074-0.626
					c0.188-0.149,0.296-0.389,0.266-0.645c-0.046-0.393-0.402-0.674-0.795-0.628c-0.393,0.046-0.674,0.402-0.628,0.795
					c0.03,0.254,0.189,0.461,0.404,0.564l0.074,0.624c-0.714,0.116-1.403,0.332-2.06,0.646l0.327,0.684
					c0.934-0.447,1.942-0.673,2.995-0.673c0.496,0,0.993,0.053,1.475,0.158l0.161-0.741
					C266.692,463.222,266.142,463.163,265.592,463.163z"/>
				<path id="XMLID_344_" style="fill:#1D262D;" d="M272.194,465.711c0.331-0.04,0.566-0.341,0.526-0.672
					c-0.04-0.331-0.341-0.566-0.672-0.526c-0.309,0.038-0.535,0.304-0.53,0.609l-0.416,0.363c-0.418-0.43-0.889-0.813-1.408-1.139
					l-0.404,0.641c1.134,0.715,2.021,1.726,2.563,2.925l0.69-0.313c-0.251-0.554-0.567-1.072-0.942-1.545l0.402-0.351
					C272.065,465.716,272.129,465.719,272.194,465.711z"/>
				<path id="XMLID_343_" style="fill:#1D262D;" d="M265.044,473.372c-0.386,0.023-0.775,0.035-1.157,0.035
					c-0.88,0-1.733-0.061-2.478-0.179c-0.39-0.062-0.846-0.155-1.27-0.292c1.046,1.861,3.069,3.125,5.388,3.125
					c2.855,0,5.262-1.916,5.95-4.504c-0.682,0.449-1.505,0.825-2.459,1.123C267.839,473.047,266.463,473.286,265.044,473.372z"/>
				<path id="XMLID_339_" style="fill:#1D262D;" d="M265.592,464.68c-3.352,0-6.08,2.666-6.08,5.943
					c0,0.426,0.046,0.849,0.137,1.261c0.673,0.483,2.706,0.89,5.348,0.731c2.879-0.173,5.297-0.957,6.672-2.159
					c-0.006-0.195-0.021-0.39-0.045-0.582C271.244,466.913,268.65,464.68,265.592,464.68z M263.432,471.194
					c-1.02,0-1.85-0.83-1.85-1.85c0-1.02,0.83-1.85,1.85-1.85c1.02,0,1.85,0.83,1.85,1.85
					C265.282,470.365,264.452,471.194,263.432,471.194z M268.17,470.286c-0.75,0-1.36-0.61-1.36-1.36s0.61-1.361,1.36-1.361
					c0.75,0,1.361,0.61,1.361,1.361S268.92,470.286,268.17,470.286z"/>
			</g>
			<path id="XMLID_336_" style="fill:#1D262D;" d="M281.595,466.547c-0.295-0.116-0.805-0.309-1.382-0.237
				c-0.551,0.069-0.844,0.341-0.844,1.007v0.866h2.228v1.717h-2.228v5.455h-1.932v-5.455h-1.34v-1.717h1.34v-0.888
				c0-1.68,0.896-2.783,2.568-2.783c0.643,0,1.157,0.122,1.59,0.308L281.595,466.547z"/>
			<path id="XMLID_334_" style="fill:#1D262D;" d="M286.298,469.879c-0.177-0.03-0.358-0.046-0.526-0.046
				c-0.896,0-1.51,0.548-1.51,1.614v3.908h-1.932v-7.172h1.873v0.785c0.451-0.673,1.14-0.977,2.021-0.977
				c0.414,0,0.848,0.128,1.094,0.337L286.298,469.879z"/>
			<path id="XMLID_331_" style="fill:#1D262D;" d="M293.965,471.757c0,0.222-0.015,0.489-0.037,0.651h-5.085
				c0.207,1.036,0.933,1.488,1.843,1.488c0.622,0,1.295-0.252,1.813-0.688l1.133,1.243c-0.814,0.748-1.85,1.088-3.057,1.088
				c-2.198,0-3.723-1.495-3.723-3.753c0-2.258,1.48-3.797,3.627-3.797C292.544,467.99,293.958,469.522,293.965,471.757z
				 M288.851,471.091h3.175c-0.177-0.918-0.733-1.436-1.562-1.436C289.554,469.655,289.021,470.203,288.851,471.091z"/>
			<path id="XMLID_328_" style="fill:#1D262D;" d="M301.618,471.757c0,0.222-0.015,0.489-0.037,0.651h-5.085
				c0.207,1.036,0.933,1.488,1.843,1.488c0.622,0,1.295-0.252,1.814-0.688l1.132,1.243c-0.814,0.748-1.85,1.088-3.057,1.088
				c-2.198,0-3.723-1.495-3.723-3.753c0-2.258,1.48-3.797,3.627-3.797C300.197,467.99,301.611,469.522,301.618,471.757z
				 M296.504,471.091h3.175c-0.178-0.918-0.733-1.436-1.562-1.436C297.207,469.655,296.674,470.203,296.504,471.091z"/>
			<path id="XMLID_325_" style="fill:#1D262D;" d="M309.964,471.764c0,2.154-1.495,3.775-3.471,3.775
				c-0.962,0-1.643-0.378-2.109-0.933v3.708h-1.924v-10.133h1.887v0.792c0.466-0.585,1.155-0.984,2.139-0.984
				C308.469,467.99,309.964,469.61,309.964,471.764z M304.287,471.764c0,1.132,0.748,1.976,1.843,1.976
				c1.14,0,1.85-0.881,1.85-1.976c0-1.095-0.71-1.976-1.85-1.976C305.035,469.788,304.287,470.632,304.287,471.764z"/>
			<path id="XMLID_322_" style="fill:#1D262D;" d="M313.068,465.836c0,0.696-0.54,1.229-1.236,1.229
				c-0.696,0-1.229-0.533-1.229-1.229c0-0.696,0.533-1.243,1.229-1.243C312.527,464.592,313.068,465.14,313.068,465.836z
				 M312.809,475.354h-1.932v-7.172h1.932V475.354z"/>
			<path id="XMLID_320_" style="fill:#1D262D;" d="M316.032,470.736l2.701-2.554h2.368l-3.479,3.375l3.501,3.797h-2.376
				l-2.716-2.901v2.901H314.1v-10.658h1.932V470.736z"/>
		</g>
		<g>
			<path style="fill:#1D262D;" d="M184.412,475.289v-1.055c-0.527,0.718-1.391,1.23-2.387,1.23c-1.846,0-3.149-1.406-3.149-3.706
				c0-2.256,1.289-3.721,3.149-3.721c0.952,0,1.816,0.469,2.387,1.245v-3.765h1.099v9.77H184.412z M184.412,473.37v-3.208
				c-0.395-0.615-1.245-1.143-2.124-1.143c-1.421,0-2.27,1.172-2.27,2.739c0,1.567,0.85,2.724,2.27,2.724
				C183.168,474.483,184.017,473.986,184.412,473.37z"/>
			<path style="fill:#1D262D;" d="M186.932,471.744c0-2.051,1.465-3.706,3.486-3.706c2.139,0,3.398,1.67,3.398,3.794v0.279h-5.727
				c0.088,1.333,1.025,2.446,2.549,2.446c0.805,0,1.626-0.322,2.182-0.894l0.527,0.718c-0.703,0.703-1.655,1.084-2.812,1.084
				C188.44,475.465,186.932,473.956,186.932,471.744z M190.403,468.947c-1.509,0-2.256,1.274-2.314,2.358h4.643
				C192.718,470.25,192.015,468.947,190.403,468.947z"/>
			<path style="fill:#1D262D;" d="M194.607,474.351l0.571-0.791c0.469,0.542,1.362,1.011,2.329,1.011c1.084,0,1.67-0.513,1.67-1.216
				c0-1.714-4.38-0.659-4.38-3.281c0-1.098,0.952-2.036,2.636-2.036c1.201,0,2.051,0.454,2.622,1.026l-0.513,0.762
				c-0.424-0.513-1.201-0.894-2.109-0.894c-0.967,0-1.567,0.483-1.567,1.113c0,1.552,4.38,0.527,4.38,3.281
				c0,1.187-0.952,2.138-2.783,2.138C196.306,475.465,195.325,475.113,194.607,474.351z"/>
			<path style="fill:#1D262D;" d="M201.477,466.471c0-0.41,0.337-0.747,0.732-0.747c0.41,0,0.747,0.337,0.747,0.747
				c0,0.41-0.337,0.732-0.747,0.732C201.814,467.203,201.477,466.881,201.477,466.471z M201.667,475.289v-7.075h1.099v7.075H201.667
				z"/>
			<path style="fill:#1D262D;" d="M204.582,477.105l0.556-0.82c0.586,0.703,1.289,0.967,2.3,0.967c1.172,0,2.27-0.571,2.27-2.124
				v-1.011c-0.513,0.718-1.377,1.26-2.373,1.26c-1.845,0-3.149-1.377-3.149-3.662c0-2.27,1.289-3.677,3.149-3.677
				c0.952,0,1.802,0.469,2.373,1.245v-1.069h1.098v6.87c0,2.344-1.641,3.076-3.369,3.076
				C206.237,478.16,205.417,477.926,204.582,477.105z M209.709,473.253v-3.091c-0.381-0.615-1.23-1.143-2.109-1.143
				c-1.421,0-2.27,1.128-2.27,2.695c0,1.553,0.849,2.695,2.27,2.695C208.478,474.41,209.328,473.868,209.709,473.253z"/>
			<path style="fill:#1D262D;" d="M217.413,475.289v-4.629c0-1.245-0.63-1.641-1.582-1.641c-0.865,0-1.685,0.527-2.095,1.099v5.17
				h-1.099v-7.075h1.099v1.025c0.498-0.586,1.464-1.201,2.519-1.201c1.48,0,2.256,0.747,2.256,2.285v4.966H217.413z"/>
			<path style="fill:#1D262D;" d="M219.932,471.744c0-2.051,1.465-3.706,3.486-3.706c2.139,0,3.398,1.67,3.398,3.794v0.279h-5.727
				c0.088,1.333,1.025,2.446,2.549,2.446c0.806,0,1.626-0.322,2.183-0.894l0.527,0.718c-0.703,0.703-1.655,1.084-2.812,1.084
				C221.441,475.465,219.932,473.956,219.932,471.744z M223.404,468.947c-1.509,0-2.256,1.274-2.314,2.358h4.643
				C225.718,470.25,225.015,468.947,223.404,468.947z"/>
			<path style="fill:#1D262D;" d="M233.35,475.289v-1.055c-0.527,0.718-1.392,1.23-2.388,1.23c-1.846,0-3.149-1.406-3.149-3.706
				c0-2.256,1.289-3.721,3.149-3.721c0.952,0,1.817,0.469,2.388,1.245v-3.765h1.098v9.77H233.35z M233.35,473.37v-3.208
				c-0.396-0.615-1.245-1.143-2.124-1.143c-1.421,0-2.27,1.172-2.27,2.739c0,1.567,0.849,2.724,2.27,2.724
				C232.105,474.483,232.954,473.986,233.35,473.37z"/>
			<path style="fill:#1D262D;" d="M239.692,475.289v-9.77h1.098v3.765c0.572-0.776,1.421-1.245,2.388-1.245
				c1.845,0,3.149,1.465,3.149,3.721c0,2.299-1.304,3.706-3.149,3.706c-0.996,0-1.86-0.513-2.388-1.23v1.055H239.692z
				 M242.9,474.483c1.436,0,2.285-1.157,2.285-2.724c0-1.568-0.85-2.739-2.285-2.739c-0.864,0-1.728,0.527-2.109,1.143v3.208
				C241.171,473.986,242.036,474.483,242.9,474.483z"/>
			<path style="fill:#1D262D;" d="M247.528,477.061c0.161,0.073,0.425,0.117,0.601,0.117c0.483,0,0.805-0.161,1.055-0.747
				l0.469-1.069l-2.959-7.148h1.187l2.358,5.8l2.344-5.8h1.201l-3.545,8.51c-0.425,1.025-1.143,1.421-2.08,1.435
				c-0.234,0-0.601-0.044-0.805-0.103L247.528,477.061z"/>
		</g>
	</g>
</g>
</svg>
